%TF.GenerationSoftware,KiCad,Pcbnew,(6.0.5)*%
%TF.CreationDate,2022-05-23T16:41:31+02:00*%
%TF.ProjectId,qi-lamp-charger,71692d6c-616d-4702-9d63-686172676572,1.0.0*%
%TF.SameCoordinates,Original*%
%TF.FileFunction,Legend,Top*%
%TF.FilePolarity,Positive*%
%FSLAX46Y46*%
G04 Gerber Fmt 4.6, Leading zero omitted, Abs format (unit mm)*
G04 Created by KiCad (PCBNEW (6.0.5)) date 2022-05-23 16:41:31*
%MOMM*%
%LPD*%
G01*
G04 APERTURE LIST*
G04 Aperture macros list*
%AMRoundRect*
0 Rectangle with rounded corners*
0 $1 Rounding radius*
0 $2 $3 $4 $5 $6 $7 $8 $9 X,Y pos of 4 corners*
0 Add a 4 corners polygon primitive as box body*
4,1,4,$2,$3,$4,$5,$6,$7,$8,$9,$2,$3,0*
0 Add four circle primitives for the rounded corners*
1,1,$1+$1,$2,$3*
1,1,$1+$1,$4,$5*
1,1,$1+$1,$6,$7*
1,1,$1+$1,$8,$9*
0 Add four rect primitives between the rounded corners*
20,1,$1+$1,$2,$3,$4,$5,0*
20,1,$1+$1,$4,$5,$6,$7,0*
20,1,$1+$1,$6,$7,$8,$9,0*
20,1,$1+$1,$8,$9,$2,$3,0*%
%AMHorizOval*
0 Thick line with rounded ends*
0 $1 width*
0 $2 $3 position (X,Y) of the first rounded end (center of the circle)*
0 $4 $5 position (X,Y) of the second rounded end (center of the circle)*
0 Add line between two ends*
20,1,$1,$2,$3,$4,$5,0*
0 Add two circle primitives to create the rounded ends*
1,1,$1,$2,$3*
1,1,$1,$4,$5*%
%AMRotRect*
0 Rectangle, with rotation*
0 The origin of the aperture is its center*
0 $1 length*
0 $2 width*
0 $3 Rotation angle, in degrees counterclockwise*
0 Add horizontal line*
21,1,$1,$2,0,0,$3*%
%AMFreePoly0*
4,1,22,0.500000,-0.750000,0.000000,-0.750000,0.000000,-0.745034,-0.079941,-0.743568,-0.215256,-0.701294,-0.333266,-0.622738,-0.424486,-0.514219,-0.481580,-0.384460,-0.499164,-0.250000,-0.500000,-0.250000,-0.500000,0.250000,-0.499164,0.250000,-0.499963,0.256109,-0.478152,0.396186,-0.417904,0.524511,-0.324060,0.630769,-0.204166,0.706417,-0.067858,0.745374,0.000001,0.744959,0.000000,0.750000,
0.500000,0.750000,0.500000,-0.750000,0.500000,-0.750000,$1*%
%AMFreePoly1*
4,1,20,0.000001,0.744959,0.073906,0.744508,0.209726,0.703889,0.328688,0.626782,0.421226,0.519385,0.479903,0.390333,0.500000,0.250000,0.500000,-0.250000,0.499851,-0.262216,0.476331,-0.402017,0.414519,-0.529596,0.319384,-0.634700,0.198574,-0.708876,0.061801,-0.746166,0.000000,-0.745034,0.000000,-0.750000,-0.500000,-0.750000,-0.500000,0.750000,0.000000,0.750000,0.000001,0.744959,
0.000001,0.744959,$1*%
G04 Aperture macros list end*
%ADD10C,0.150000*%
%ADD11C,0.120000*%
%ADD12C,2.200000*%
%ADD13RoundRect,0.225000X0.319856X0.104006X-0.069856X0.329006X-0.319856X-0.104006X0.069856X-0.329006X0*%
%ADD14RotRect,1.500000X1.000000X120.000000*%
%ADD15R,1.000000X1.500000*%
%ADD16RotRect,1.500000X1.000000X60.000000*%
%ADD17RoundRect,0.225000X-0.225000X-0.250000X0.225000X-0.250000X0.225000X0.250000X-0.225000X0.250000X0*%
%ADD18RoundRect,0.225000X0.250000X-0.225000X0.250000X0.225000X-0.250000X0.225000X-0.250000X-0.225000X0*%
%ADD19R,1.500000X1.000000*%
%ADD20FreePoly0,240.000000*%
%ADD21FreePoly1,240.000000*%
%ADD22FreePoly0,270.000000*%
%ADD23FreePoly1,270.000000*%
%ADD24FreePoly0,120.000000*%
%ADD25FreePoly1,120.000000*%
%ADD26RoundRect,0.225000X-0.250000X0.225000X-0.250000X-0.225000X0.250000X-0.225000X0.250000X0.225000X0*%
%ADD27FreePoly0,300.000000*%
%ADD28FreePoly1,300.000000*%
%ADD29RoundRect,0.225000X0.225000X0.250000X-0.225000X0.250000X-0.225000X-0.250000X0.225000X-0.250000X0*%
%ADD30FreePoly0,0.000000*%
%ADD31FreePoly1,0.000000*%
%ADD32FreePoly0,90.000000*%
%ADD33FreePoly1,90.000000*%
%ADD34RotRect,1.500000X1.000000X300.000000*%
%ADD35RoundRect,0.250000X0.475000X-0.250000X0.475000X0.250000X-0.475000X0.250000X-0.475000X-0.250000X0*%
%ADD36RotRect,1.500000X1.000000X240.000000*%
%ADD37FreePoly0,60.000000*%
%ADD38FreePoly1,60.000000*%
%ADD39FreePoly0,180.000000*%
%ADD40FreePoly1,180.000000*%
%ADD41RoundRect,0.225000X0.069856X0.329006X-0.319856X0.104006X-0.069856X-0.329006X0.319856X-0.104006X0*%
%ADD42RotRect,1.700000X1.700000X127.500000*%
%ADD43HorizOval,1.700000X0.000000X0.000000X0.000000X0.000000X0*%
%ADD44RotRect,1.000000X1.000000X130.000000*%
%ADD45HorizOval,1.000000X0.000000X0.000000X0.000000X0.000000X0*%
%ADD46RotRect,1.700000X1.700000X232.500000*%
%ADD47HorizOval,1.700000X0.000000X0.000000X0.000000X0.000000X0*%
%ADD48RotRect,1.700000X1.700000X60.000000*%
%ADD49HorizOval,1.700000X0.000000X0.000000X0.000000X0.000000X0*%
%ADD50C,0.800000*%
%ADD51RotRect,1.700000X1.700000X330.000000*%
%ADD52HorizOval,1.700000X0.000000X0.000000X0.000000X0.000000X0*%
G04 APERTURE END LIST*
D10*
X116062380Y-95928571D02*
X116110000Y-95833333D01*
X116205238Y-95738095D01*
X116348095Y-95595238D01*
X116395714Y-95500000D01*
X116395714Y-95404761D01*
X116157619Y-95452380D02*
X116205238Y-95357142D01*
X116300476Y-95261904D01*
X116490952Y-95214285D01*
X116824285Y-95214285D01*
X117014761Y-95261904D01*
X117110000Y-95357142D01*
X117157619Y-95452380D01*
X117157619Y-95642857D01*
X117110000Y-95738095D01*
X117014761Y-95833333D01*
X116824285Y-95880952D01*
X116490952Y-95880952D01*
X116300476Y-95833333D01*
X116205238Y-95738095D01*
X116157619Y-95642857D01*
X116157619Y-95452380D01*
X116157619Y-96309523D02*
X116824285Y-96309523D01*
X117157619Y-96309523D02*
X117110000Y-96261904D01*
X117062380Y-96309523D01*
X117110000Y-96357142D01*
X117157619Y-96309523D01*
X117062380Y-96309523D01*
X117157619Y-97452380D02*
X116157619Y-97690476D01*
X116871904Y-97880952D01*
X116157619Y-98071428D01*
X117157619Y-98309523D01*
X116157619Y-98690476D02*
X116824285Y-98690476D01*
X117157619Y-98690476D02*
X117110000Y-98642857D01*
X117062380Y-98690476D01*
X117110000Y-98738095D01*
X117157619Y-98690476D01*
X117062380Y-98690476D01*
X116681428Y-99500000D02*
X116681428Y-99166666D01*
X116157619Y-99166666D02*
X117157619Y-99166666D01*
X117157619Y-99642857D01*
X116157619Y-100023809D02*
X116824285Y-100023809D01*
X117157619Y-100023809D02*
X117110000Y-99976190D01*
X117062380Y-100023809D01*
X117110000Y-100071428D01*
X117157619Y-100023809D01*
X117062380Y-100023809D01*
X116157619Y-101738095D02*
X116157619Y-101261904D01*
X117157619Y-101261904D01*
X116157619Y-102500000D02*
X116681428Y-102500000D01*
X116776666Y-102452380D01*
X116824285Y-102357142D01*
X116824285Y-102166666D01*
X116776666Y-102071428D01*
X116205238Y-102500000D02*
X116157619Y-102404761D01*
X116157619Y-102166666D01*
X116205238Y-102071428D01*
X116300476Y-102023809D01*
X116395714Y-102023809D01*
X116490952Y-102071428D01*
X116538571Y-102166666D01*
X116538571Y-102404761D01*
X116586190Y-102500000D01*
X116157619Y-102976190D02*
X116824285Y-102976190D01*
X116729047Y-102976190D02*
X116776666Y-103023809D01*
X116824285Y-103119047D01*
X116824285Y-103261904D01*
X116776666Y-103357142D01*
X116681428Y-103404761D01*
X116157619Y-103404761D01*
X116681428Y-103404761D02*
X116776666Y-103452380D01*
X116824285Y-103547619D01*
X116824285Y-103690476D01*
X116776666Y-103785714D01*
X116681428Y-103833333D01*
X116157619Y-103833333D01*
X116824285Y-104309523D02*
X115824285Y-104309523D01*
X116776666Y-104309523D02*
X116824285Y-104404761D01*
X116824285Y-104595238D01*
X116776666Y-104690476D01*
X116729047Y-104738095D01*
X116633809Y-104785714D01*
X116348095Y-104785714D01*
X116252857Y-104738095D01*
X116205238Y-104690476D01*
X116157619Y-104595238D01*
X116157619Y-104404761D01*
X116205238Y-104309523D01*
X114547619Y-98023809D02*
X115214285Y-98023809D01*
X115023809Y-98023809D02*
X115119047Y-98071428D01*
X115166666Y-98119047D01*
X115214285Y-98214285D01*
X115214285Y-98309523D01*
X114547619Y-99166666D02*
X114547619Y-98595238D01*
X114547619Y-98880952D02*
X115547619Y-98880952D01*
X115404761Y-98785714D01*
X115309523Y-98690476D01*
X115261904Y-98595238D01*
X114642857Y-99595238D02*
X114595238Y-99642857D01*
X114547619Y-99595238D01*
X114595238Y-99547619D01*
X114642857Y-99595238D01*
X114547619Y-99595238D01*
X115547619Y-100261904D02*
X115547619Y-100357142D01*
X115500000Y-100452380D01*
X115452380Y-100500000D01*
X115357142Y-100547619D01*
X115166666Y-100595238D01*
X114928571Y-100595238D01*
X114738095Y-100547619D01*
X114642857Y-100500000D01*
X114595238Y-100452380D01*
X114547619Y-100357142D01*
X114547619Y-100261904D01*
X114595238Y-100166666D01*
X114642857Y-100119047D01*
X114738095Y-100071428D01*
X114928571Y-100023809D01*
X115166666Y-100023809D01*
X115357142Y-100071428D01*
X115452380Y-100119047D01*
X115500000Y-100166666D01*
X115547619Y-100261904D01*
X114642857Y-101023809D02*
X114595238Y-101071428D01*
X114547619Y-101023809D01*
X114595238Y-100976190D01*
X114642857Y-101023809D01*
X114547619Y-101023809D01*
X115547619Y-101690476D02*
X115547619Y-101785714D01*
X115500000Y-101880952D01*
X115452380Y-101928571D01*
X115357142Y-101976190D01*
X115166666Y-102023809D01*
X114928571Y-102023809D01*
X114738095Y-101976190D01*
X114642857Y-101928571D01*
X114595238Y-101880952D01*
X114547619Y-101785714D01*
X114547619Y-101690476D01*
X114595238Y-101595238D01*
X114642857Y-101547619D01*
X114738095Y-101500000D01*
X114928571Y-101452380D01*
X115166666Y-101452380D01*
X115357142Y-101500000D01*
X115452380Y-101547619D01*
X115500000Y-101595238D01*
X115547619Y-101690476D01*
X112985238Y-96976190D02*
X112937619Y-97119047D01*
X112937619Y-97357142D01*
X112985238Y-97452380D01*
X113032857Y-97500000D01*
X113128095Y-97547619D01*
X113223333Y-97547619D01*
X113318571Y-97500000D01*
X113366190Y-97452380D01*
X113413809Y-97357142D01*
X113461428Y-97166666D01*
X113509047Y-97071428D01*
X113556666Y-97023809D01*
X113651904Y-96976190D01*
X113747142Y-96976190D01*
X113842380Y-97023809D01*
X113890000Y-97071428D01*
X113937619Y-97166666D01*
X113937619Y-97404761D01*
X113890000Y-97547619D01*
X113604285Y-97833333D02*
X113604285Y-98214285D01*
X113937619Y-97976190D02*
X113080476Y-97976190D01*
X112985238Y-98023809D01*
X112937619Y-98119047D01*
X112937619Y-98214285D01*
X112985238Y-98928571D02*
X112937619Y-98833333D01*
X112937619Y-98642857D01*
X112985238Y-98547619D01*
X113080476Y-98500000D01*
X113461428Y-98500000D01*
X113556666Y-98547619D01*
X113604285Y-98642857D01*
X113604285Y-98833333D01*
X113556666Y-98928571D01*
X113461428Y-98976190D01*
X113366190Y-98976190D01*
X113270952Y-98500000D01*
X113604285Y-99404761D02*
X112604285Y-99404761D01*
X113556666Y-99404761D02*
X113604285Y-99500000D01*
X113604285Y-99690476D01*
X113556666Y-99785714D01*
X113509047Y-99833333D01*
X113413809Y-99880952D01*
X113128095Y-99880952D01*
X113032857Y-99833333D01*
X112985238Y-99785714D01*
X112937619Y-99690476D01*
X112937619Y-99500000D01*
X112985238Y-99404761D01*
X113937619Y-100214285D02*
X113937619Y-100880952D01*
X112937619Y-100452380D01*
X113032857Y-101261904D02*
X112985238Y-101309523D01*
X112937619Y-101261904D01*
X112985238Y-101214285D01*
X113032857Y-101261904D01*
X112937619Y-101261904D01*
X112937619Y-102166666D02*
X113937619Y-102166666D01*
X112985238Y-102166666D02*
X112937619Y-102071428D01*
X112937619Y-101880952D01*
X112985238Y-101785714D01*
X113032857Y-101738095D01*
X113128095Y-101690476D01*
X113413809Y-101690476D01*
X113509047Y-101738095D01*
X113556666Y-101785714D01*
X113604285Y-101880952D01*
X113604285Y-102071428D01*
X113556666Y-102166666D01*
X112937619Y-102642857D02*
X113937619Y-102642857D01*
X113318571Y-102738095D02*
X112937619Y-103023809D01*
X113604285Y-103023809D02*
X113223333Y-102642857D01*
X111327619Y-94738095D02*
X112327619Y-94738095D01*
X111613333Y-95071428D01*
X112327619Y-95404761D01*
X111327619Y-95404761D01*
X111327619Y-96309523D02*
X111851428Y-96309523D01*
X111946666Y-96261904D01*
X111994285Y-96166666D01*
X111994285Y-95976190D01*
X111946666Y-95880952D01*
X111375238Y-96309523D02*
X111327619Y-96214285D01*
X111327619Y-95976190D01*
X111375238Y-95880952D01*
X111470476Y-95833333D01*
X111565714Y-95833333D01*
X111660952Y-95880952D01*
X111708571Y-95976190D01*
X111708571Y-96214285D01*
X111756190Y-96309523D01*
X111327619Y-96785714D02*
X111994285Y-96785714D01*
X111803809Y-96785714D02*
X111899047Y-96833333D01*
X111946666Y-96880952D01*
X111994285Y-96976190D01*
X111994285Y-97071428D01*
X111994285Y-97261904D02*
X111994285Y-97642857D01*
X112327619Y-97404761D02*
X111470476Y-97404761D01*
X111375238Y-97452380D01*
X111327619Y-97547619D01*
X111327619Y-97642857D01*
X111327619Y-97976190D02*
X111994285Y-97976190D01*
X112327619Y-97976190D02*
X112280000Y-97928571D01*
X112232380Y-97976190D01*
X112280000Y-98023809D01*
X112327619Y-97976190D01*
X112232380Y-97976190D01*
X111994285Y-98452380D02*
X111327619Y-98452380D01*
X111899047Y-98452380D02*
X111946666Y-98500000D01*
X111994285Y-98595238D01*
X111994285Y-98738095D01*
X111946666Y-98833333D01*
X111851428Y-98880952D01*
X111327619Y-98880952D01*
X111613333Y-100071428D02*
X111613333Y-100547619D01*
X111327619Y-99976190D02*
X112327619Y-100309523D01*
X111327619Y-100642857D01*
X111327619Y-100880952D02*
X111994285Y-101404761D01*
X111994285Y-100880952D02*
X111327619Y-101404761D01*
X111375238Y-102166666D02*
X111327619Y-102071428D01*
X111327619Y-101880952D01*
X111375238Y-101785714D01*
X111470476Y-101738095D01*
X111851428Y-101738095D01*
X111946666Y-101785714D01*
X111994285Y-101880952D01*
X111994285Y-102071428D01*
X111946666Y-102166666D01*
X111851428Y-102214285D01*
X111756190Y-102214285D01*
X111660952Y-101738095D01*
X111327619Y-102785714D02*
X111375238Y-102690476D01*
X111470476Y-102642857D01*
X112327619Y-102642857D01*
X111375238Y-103119047D02*
X111327619Y-103214285D01*
X111327619Y-103404761D01*
X111375238Y-103500000D01*
X111470476Y-103547619D01*
X111518095Y-103547619D01*
X111613333Y-103500000D01*
X111660952Y-103404761D01*
X111660952Y-103261904D01*
X111708571Y-103166666D01*
X111803809Y-103119047D01*
X111851428Y-103119047D01*
X111946666Y-103166666D01*
X111994285Y-103261904D01*
X111994285Y-103404761D01*
X111946666Y-103500000D01*
X111375238Y-104357142D02*
X111327619Y-104261904D01*
X111327619Y-104071428D01*
X111375238Y-103976190D01*
X111470476Y-103928571D01*
X111851428Y-103928571D01*
X111946666Y-103976190D01*
X111994285Y-104071428D01*
X111994285Y-104261904D01*
X111946666Y-104357142D01*
X111851428Y-104404761D01*
X111756190Y-104404761D01*
X111660952Y-103928571D01*
X111994285Y-104833333D02*
X111327619Y-104833333D01*
X111899047Y-104833333D02*
X111946666Y-104880952D01*
X111994285Y-104976190D01*
X111994285Y-105119047D01*
X111946666Y-105214285D01*
X111851428Y-105261904D01*
X111327619Y-105261904D01*
D11*
%TO.C,C26*%
X112976746Y-111828617D02*
X112733254Y-111688037D01*
X112466746Y-112711963D02*
X112223254Y-112571383D01*
%TO.C,D2*%
X114165862Y-96035993D02*
X110515862Y-89714007D01*
X115279002Y-86964007D02*
X114283073Y-87539007D01*
X118929002Y-93285993D02*
X115279002Y-86964007D01*
%TO.C,D8*%
X110750000Y-103650001D02*
X110750000Y-96350001D01*
X105250000Y-103650001D02*
X105250000Y-96350001D01*
X110750000Y-96350001D02*
X109600000Y-96350001D01*
%TO.C,D3*%
X118929002Y-106714007D02*
X117933073Y-106139007D01*
X110515862Y-110285993D02*
X114165862Y-103964007D01*
X115279002Y-113035993D02*
X118929002Y-106714007D01*
%TO.C,C25*%
X108959420Y-94810000D02*
X109240580Y-94810000D01*
X108959420Y-93790000D02*
X109240580Y-93790000D01*
%TO.C,C29*%
X88576746Y-87528617D02*
X88333254Y-87388037D01*
X88066746Y-88411963D02*
X87823254Y-88271383D01*
%TO.C,C27*%
X94990000Y-116440580D02*
X94990000Y-116159420D01*
X96010000Y-116440580D02*
X96010000Y-116159420D01*
%TO.C,D7*%
X103650000Y-94750000D02*
X96350000Y-94750000D01*
X96350000Y-89250000D02*
X96350000Y-90400000D01*
X103650000Y-89250000D02*
X96350000Y-89250000D01*
%TO.C,JP3*%
X115162624Y-107137564D02*
X115682240Y-107437564D01*
X113506407Y-108606218D02*
X114206407Y-107393782D01*
X114282240Y-109862436D02*
X113762624Y-109562436D01*
X115938457Y-108393782D02*
X115238457Y-109606218D01*
X115162624Y-107137564D02*
G75*
G03*
X114206407Y-107393782I-350000J-606217D01*
G01*
X114282241Y-109862435D02*
G75*
G03*
X115238457Y-109606218I349999J606217D01*
G01*
X113506406Y-108606218D02*
G75*
G03*
X113762624Y-109562436I606218J-350000D01*
G01*
X115938458Y-108393783D02*
G75*
G03*
X115682240Y-107437564I-606217J350001D01*
G01*
%TO.C,JP8*%
X109000000Y-99300001D02*
X109000000Y-100700001D01*
X108300000Y-101400001D02*
X107700000Y-101400001D01*
X107000000Y-100700001D02*
X107000000Y-99300001D01*
X107700000Y-98600001D02*
X108300000Y-98600001D01*
X107000000Y-100700001D02*
G75*
G03*
X107700000Y-101400001I700000J0D01*
G01*
X107700000Y-98600001D02*
G75*
G03*
X107000000Y-99300001I-1J-699999D01*
G01*
X109000000Y-99300001D02*
G75*
G03*
X108300000Y-98600001I-699999J1D01*
G01*
X108300000Y-101400001D02*
G75*
G03*
X109000000Y-100700001I0J700000D01*
G01*
%TO.C,JP5*%
X85793593Y-107393782D02*
X86493593Y-108606218D01*
X84761543Y-109606218D02*
X84061543Y-108393782D01*
X84317760Y-107437564D02*
X84837376Y-107137564D01*
X86237376Y-109562436D02*
X85717760Y-109862436D01*
X84317761Y-107437565D02*
G75*
G03*
X84061543Y-108393782I349999J-606217D01*
G01*
X86237375Y-109562435D02*
G75*
G03*
X86493593Y-108606218I-349998J606217D01*
G01*
X84761543Y-109606218D02*
G75*
G03*
X85717760Y-109862436I606217J349999D01*
G01*
X85793594Y-107393782D02*
G75*
G03*
X84837376Y-107137564I-606218J-350000D01*
G01*
%TO.C,D4*%
X96350000Y-114250000D02*
X103650000Y-114250000D01*
X103650000Y-119750000D02*
X103650000Y-118600000D01*
X96350000Y-119750000D02*
X103650000Y-119750000D01*
%TO.C,C30*%
X104910000Y-94259420D02*
X104910000Y-94540580D01*
X103890000Y-94259420D02*
X103890000Y-94540580D01*
%TO.C,JP2*%
X114206407Y-92606218D02*
X113506407Y-91393782D01*
X115682240Y-92562436D02*
X115162624Y-92862436D01*
X115238457Y-90393782D02*
X115938457Y-91606218D01*
X113762624Y-90437564D02*
X114282240Y-90137564D01*
X115238457Y-90393782D02*
G75*
G03*
X114282240Y-90137564I-606217J-349999D01*
G01*
X115682239Y-92562435D02*
G75*
G03*
X115938457Y-91606218I-349999J606217D01*
G01*
X113762625Y-90437565D02*
G75*
G03*
X113506407Y-91393782I349998J-606217D01*
G01*
X114206406Y-92606218D02*
G75*
G03*
X115162624Y-92862436I606218J350000D01*
G01*
%TO.C,C31*%
X107340580Y-104910000D02*
X107059420Y-104910000D01*
X107340580Y-103890000D02*
X107059420Y-103890000D01*
%TO.C,D9*%
X96350000Y-110750000D02*
X103650000Y-110750000D01*
X96350000Y-105250000D02*
X103650000Y-105250000D01*
X103650000Y-110750000D02*
X103650000Y-109600000D01*
%TO.C,JP7*%
X99300000Y-91000000D02*
X100700000Y-91000000D01*
X101400000Y-91700000D02*
X101400000Y-92300000D01*
X100700000Y-93000000D02*
X99300000Y-93000000D01*
X98600000Y-92300000D02*
X98600000Y-91700000D01*
X99300000Y-91000000D02*
G75*
G03*
X98600000Y-91700000I-1J-699999D01*
G01*
X98600000Y-92300000D02*
G75*
G03*
X99300000Y-93000000I699999J-1D01*
G01*
X100700000Y-93000000D02*
G75*
G03*
X101400000Y-92300000I0J700000D01*
G01*
X101400000Y-91700000D02*
G75*
G03*
X100700000Y-91000000I-700000J0D01*
G01*
%TO.C,JP10*%
X91700000Y-98600000D02*
X92300000Y-98600000D01*
X92300000Y-101400000D02*
X91700000Y-101400000D01*
X91000000Y-100700000D02*
X91000000Y-99300000D01*
X93000000Y-99300000D02*
X93000000Y-100700000D01*
X91000000Y-100700000D02*
G75*
G03*
X91700000Y-101400000I699999J-1D01*
G01*
X92300000Y-101400000D02*
G75*
G03*
X93000000Y-100700000I1J699999D01*
G01*
X91700000Y-98600000D02*
G75*
G03*
X91000000Y-99300000I0J-700000D01*
G01*
X93000000Y-99300000D02*
G75*
G03*
X92300000Y-98600000I-700000J0D01*
G01*
%TO.C,D5*%
X85834138Y-103964007D02*
X89484138Y-110285993D01*
X81070998Y-106714007D02*
X84720998Y-113035993D01*
X84720998Y-113035993D02*
X85716927Y-112460993D01*
%TO.C,C21*%
X99215002Y-112761249D02*
X99215002Y-112238745D01*
X100685002Y-112761249D02*
X100685002Y-112238745D01*
%TO.C,D1*%
X103650000Y-80250000D02*
X96350000Y-80250000D01*
X103650000Y-85750000D02*
X96350000Y-85750000D01*
X96350000Y-80250000D02*
X96350000Y-81400000D01*
%TO.C,C24*%
X104910000Y-85259420D02*
X104910000Y-85540580D01*
X103890000Y-85259420D02*
X103890000Y-85540580D01*
%TO.C,D6*%
X89484138Y-89714007D02*
X85834138Y-96035993D01*
X84720998Y-86964007D02*
X81070998Y-93285993D01*
X81070998Y-93285993D02*
X82066927Y-93860993D01*
%TO.C,C20*%
X104185001Y-112761243D02*
X104185001Y-112238739D01*
X102715001Y-112761243D02*
X102715001Y-112238739D01*
%TO.C,JP6*%
X84061543Y-91606218D02*
X84761543Y-90393782D01*
X84837376Y-92862436D02*
X84317760Y-92562436D01*
X85717760Y-90137564D02*
X86237376Y-90437564D01*
X86493593Y-91393782D02*
X85793593Y-92606218D01*
X84061542Y-91606217D02*
G75*
G03*
X84317760Y-92562436I606217J-350001D01*
G01*
X84837376Y-92862436D02*
G75*
G03*
X85793593Y-92606218I350000J606217D01*
G01*
X85717759Y-90137565D02*
G75*
G03*
X84761543Y-90393782I-349999J-606217D01*
G01*
X86493594Y-91393782D02*
G75*
G03*
X86237376Y-90437564I-606218J350000D01*
G01*
%TO.C,JP4*%
X98600000Y-117300000D02*
X98600000Y-116700000D01*
X99300000Y-116000000D02*
X100700000Y-116000000D01*
X100700000Y-118000000D02*
X99300000Y-118000000D01*
X101400000Y-116700000D02*
X101400000Y-117300000D01*
X98600000Y-117300000D02*
G75*
G03*
X99300000Y-118000000I700000J0D01*
G01*
X100700000Y-118000000D02*
G75*
G03*
X101400000Y-117300000I1J699999D01*
G01*
X99300000Y-116000000D02*
G75*
G03*
X98600000Y-116700000I0J-700000D01*
G01*
X101400000Y-116700000D02*
G75*
G03*
X100700000Y-116000000I-699999J1D01*
G01*
%TO.C,C33*%
X92659420Y-95090000D02*
X92940580Y-95090000D01*
X92659420Y-96110000D02*
X92940580Y-96110000D01*
%TO.C,C32*%
X96990000Y-103559420D02*
X96990000Y-103840580D01*
X98010000Y-103559420D02*
X98010000Y-103840580D01*
%TO.C,D10*%
X89250000Y-96350000D02*
X89250000Y-103650000D01*
X89250000Y-103650000D02*
X90400000Y-103650000D01*
X94750000Y-96350000D02*
X94750000Y-103650000D01*
%TO.C,C28*%
X84276746Y-104571383D02*
X84033254Y-104711963D01*
X83766746Y-103688037D02*
X83523254Y-103828617D01*
%TO.C,C3*%
X102210002Y-112640578D02*
X102210002Y-112359418D01*
X101190002Y-112640578D02*
X101190002Y-112359418D01*
%TO.C,JP1*%
X99300000Y-82000000D02*
X100700000Y-82000000D01*
X98600000Y-83300000D02*
X98600000Y-82700000D01*
X101400000Y-82700000D02*
X101400000Y-83300000D01*
X100700000Y-84000000D02*
X99300000Y-84000000D01*
X101400000Y-82700000D02*
G75*
G03*
X100700000Y-82000000I-700000J0D01*
G01*
X99300000Y-82000000D02*
G75*
G03*
X98600000Y-82700000I-1J-699999D01*
G01*
X98600000Y-83300000D02*
G75*
G03*
X99300000Y-84000000I699999J-1D01*
G01*
X100700000Y-84000000D02*
G75*
G03*
X101400000Y-83300000I0J700000D01*
G01*
%TO.C,JP9*%
X98600000Y-108300000D02*
X98600000Y-107700000D01*
X99300000Y-107000000D02*
X100700000Y-107000000D01*
X100700000Y-109000000D02*
X99300000Y-109000000D01*
X101400000Y-107700000D02*
X101400000Y-108300000D01*
X101400000Y-107700000D02*
G75*
G03*
X100700000Y-107000000I-699999J1D01*
G01*
X98600000Y-108300000D02*
G75*
G03*
X99300000Y-109000000I700000J0D01*
G01*
X99300000Y-107000000D02*
G75*
G03*
X98600000Y-107700000I0J-700000D01*
G01*
X100700000Y-109000000D02*
G75*
G03*
X101400000Y-108300000I1J699999D01*
G01*
%TD*%
%LPC*%
D12*
%TO.C,H2*%
X120000000Y-100000000D03*
%TD*%
%TO.C,H1*%
X93000000Y-81000000D03*
%TD*%
D13*
%TO.C,C26*%
X113271170Y-112587500D03*
X111928830Y-111812500D03*
%TD*%
D14*
%TO.C,D2*%
X114883073Y-88578238D03*
X112111791Y-90178238D03*
X114561791Y-94421762D03*
X117333073Y-92821762D03*
%TD*%
D15*
%TO.C,D8*%
X109600000Y-97550001D03*
X106400000Y-97550001D03*
X106400000Y-102450001D03*
X109600000Y-102450001D03*
%TD*%
D16*
%TO.C,D3*%
X117333073Y-107178238D03*
X114561791Y-105578238D03*
X112111791Y-109821762D03*
X114883073Y-111421762D03*
%TD*%
D17*
%TO.C,C25*%
X108325000Y-94300000D03*
X109875000Y-94300000D03*
%TD*%
D13*
%TO.C,C29*%
X88871170Y-88287500D03*
X87528830Y-87512500D03*
%TD*%
D18*
%TO.C,C27*%
X95500000Y-117075000D03*
X95500000Y-115525000D03*
%TD*%
D19*
%TO.C,D7*%
X97550000Y-90400000D03*
X97550000Y-93600000D03*
X102450000Y-93600000D03*
X102450000Y-90400000D03*
%TD*%
D20*
%TO.C,JP3*%
X115047432Y-107937083D03*
D21*
X114397432Y-109062917D03*
%TD*%
D22*
%TO.C,JP8*%
X108000000Y-99350001D03*
D23*
X108000000Y-100650001D03*
%TD*%
D24*
%TO.C,JP5*%
X85602568Y-109062917D03*
D25*
X84952568Y-107937083D03*
%TD*%
D19*
%TO.C,D4*%
X102450000Y-118600000D03*
X102450000Y-115400000D03*
X97550000Y-115400000D03*
X97550000Y-118600000D03*
%TD*%
D26*
%TO.C,C30*%
X104400000Y-93625000D03*
X104400000Y-95175000D03*
%TD*%
D27*
%TO.C,JP2*%
X114397432Y-90937083D03*
D28*
X115047432Y-92062917D03*
%TD*%
D29*
%TO.C,C31*%
X107975000Y-104400000D03*
X106425000Y-104400000D03*
%TD*%
D19*
%TO.C,D9*%
X102450000Y-109600000D03*
X102450000Y-106400000D03*
X97550000Y-106400000D03*
X97550000Y-109600000D03*
%TD*%
D30*
%TO.C,JP7*%
X99350000Y-92000000D03*
D31*
X100650000Y-92000000D03*
%TD*%
D32*
%TO.C,JP10*%
X92000000Y-100650000D03*
D33*
X92000000Y-99350000D03*
%TD*%
D34*
%TO.C,D5*%
X85116927Y-111421762D03*
X87888209Y-109821762D03*
X85438209Y-105578238D03*
X82666927Y-107178238D03*
%TD*%
D35*
%TO.C,C21*%
X99950002Y-113449997D03*
X99950002Y-111549997D03*
%TD*%
D19*
%TO.C,D1*%
X97550000Y-81400000D03*
X97550000Y-84600000D03*
X102450000Y-84600000D03*
X102450000Y-81400000D03*
%TD*%
D26*
%TO.C,C24*%
X104400000Y-84625000D03*
X104400000Y-86175000D03*
%TD*%
D36*
%TO.C,D6*%
X82666927Y-92821762D03*
X85438209Y-94421762D03*
X87888209Y-90178238D03*
X85116927Y-88578238D03*
%TD*%
D35*
%TO.C,C20*%
X103450001Y-113449991D03*
X103450001Y-111549991D03*
%TD*%
D37*
%TO.C,JP6*%
X84952568Y-92062917D03*
D38*
X85602568Y-90937083D03*
%TD*%
D39*
%TO.C,JP4*%
X100650000Y-117000000D03*
D40*
X99350000Y-117000000D03*
%TD*%
D17*
%TO.C,C33*%
X92025000Y-95600000D03*
X93575000Y-95600000D03*
%TD*%
D26*
%TO.C,C32*%
X97500000Y-102925000D03*
X97500000Y-104475000D03*
%TD*%
D15*
%TO.C,D10*%
X90400000Y-102450000D03*
X93600000Y-102450000D03*
X93600000Y-97550000D03*
X90400000Y-97550000D03*
%TD*%
D41*
%TO.C,C28*%
X84571170Y-103812500D03*
X83228830Y-104587500D03*
%TD*%
D18*
%TO.C,C3*%
X101700002Y-113274998D03*
X101700002Y-111724998D03*
%TD*%
D30*
%TO.C,JP1*%
X99350000Y-83000000D03*
D31*
X100650000Y-83000000D03*
%TD*%
D39*
%TO.C,JP9*%
X100650000Y-108000000D03*
D40*
X99350000Y-108000000D03*
%TD*%
D42*
%TO.C,J2*%
X111433882Y-114566116D03*
D43*
X109418765Y-116112370D03*
%TD*%
D44*
%TO.C,TP1*%
X88716987Y-85163398D03*
D45*
X87744111Y-85979738D03*
%TD*%
D46*
%TO.C,J1*%
X86600000Y-113200000D03*
D47*
X88615117Y-114746254D03*
X90630235Y-116292508D03*
%TD*%
D48*
%TO.C,J5*%
X110800000Y-85900000D03*
D49*
X108600295Y-84630000D03*
X106400591Y-83360000D03*
%TD*%
D50*
%TO.C,SW1*%
X81850000Y-98150000D03*
X81850000Y-101850000D03*
%TD*%
D51*
%TO.C,J4*%
X85900000Y-99200000D03*
D52*
X87170000Y-97000295D03*
X88440000Y-94800591D03*
X89710000Y-92600886D03*
X90980000Y-90401182D03*
X92250000Y-88201477D03*
%TD*%
M02*
