%TF.GenerationSoftware,KiCad,Pcbnew,(6.0.5)*%
%TF.CreationDate,2022-05-23T16:41:31+02:00*%
%TF.ProjectId,qi-lamp-charger,71692d6c-616d-4702-9d63-686172676572,1.0.0*%
%TF.SameCoordinates,Original*%
%TF.FileFunction,Soldermask,Bot*%
%TF.FilePolarity,Negative*%
%FSLAX46Y46*%
G04 Gerber Fmt 4.6, Leading zero omitted, Abs format (unit mm)*
G04 Created by KiCad (PCBNEW (6.0.5)) date 2022-05-23 16:41:31*
%MOMM*%
%LPD*%
G01*
G04 APERTURE LIST*
G04 Aperture macros list*
%AMRoundRect*
0 Rectangle with rounded corners*
0 $1 Rounding radius*
0 $2 $3 $4 $5 $6 $7 $8 $9 X,Y pos of 4 corners*
0 Add a 4 corners polygon primitive as box body*
4,1,4,$2,$3,$4,$5,$6,$7,$8,$9,$2,$3,0*
0 Add four circle primitives for the rounded corners*
1,1,$1+$1,$2,$3*
1,1,$1+$1,$4,$5*
1,1,$1+$1,$6,$7*
1,1,$1+$1,$8,$9*
0 Add four rect primitives between the rounded corners*
20,1,$1+$1,$2,$3,$4,$5,0*
20,1,$1+$1,$4,$5,$6,$7,0*
20,1,$1+$1,$6,$7,$8,$9,0*
20,1,$1+$1,$8,$9,$2,$3,0*%
%AMHorizOval*
0 Thick line with rounded ends*
0 $1 width*
0 $2 $3 position (X,Y) of the first rounded end (center of the circle)*
0 $4 $5 position (X,Y) of the second rounded end (center of the circle)*
0 Add line between two ends*
20,1,$1,$2,$3,$4,$5,0*
0 Add two circle primitives to create the rounded ends*
1,1,$1,$2,$3*
1,1,$1,$4,$5*%
%AMRotRect*
0 Rectangle, with rotation*
0 The origin of the aperture is its center*
0 $1 length*
0 $2 width*
0 $3 Rotation angle, in degrees counterclockwise*
0 Add horizontal line*
21,1,$1,$2,0,0,$3*%
%AMFreePoly0*
4,1,13,0.375000,1.525000,1.025000,1.525000,1.025000,-1.525000,0.375000,-1.525000,0.375000,-1.925000,-0.375000,-1.925000,-0.375000,-1.525000,-1.025000,-1.525000,-1.025000,1.525000,-0.375000,1.525000,-0.375000,1.925000,0.375000,1.925000,0.375000,1.525000,0.375000,1.525000,$1*%
%AMFreePoly1*
4,1,22,0.500000,-0.750000,0.000000,-0.750000,-0.000001,-0.745033,-0.079941,-0.743568,-0.215257,-0.701293,-0.333266,-0.622738,-0.424486,-0.514219,-0.481581,-0.384461,-0.499164,-0.250000,-0.500000,-0.250000,-0.500000,0.250000,-0.499164,0.250000,-0.499963,0.256109,-0.478152,0.396186,-0.417904,0.524511,-0.324060,0.630769,-0.204165,0.706418,-0.067858,0.745374,0.000000,0.744958,0.000000,0.750000,
0.500000,0.750000,0.500000,-0.750000,0.500000,-0.750000,$1*%
%AMFreePoly2*
4,1,20,0.000000,0.744958,0.073905,0.744508,0.209727,0.703889,0.328688,0.626782,0.421226,0.519385,0.479903,0.390333,0.500000,0.250000,0.500000,-0.250000,0.499851,-0.262216,0.476331,-0.402017,0.414519,-0.529596,0.319384,-0.634700,0.198575,-0.708877,0.061801,-0.746166,-0.000001,-0.745033,0.000000,-0.750000,-0.500000,-0.750000,-0.500000,0.750000,0.000000,0.750000,0.000000,0.744958,
0.000000,0.744958,$1*%
G04 Aperture macros list end*
%ADD10C,2.200000*%
%ADD11RoundRect,0.225000X0.017678X-0.335876X0.335876X-0.017678X-0.017678X0.335876X-0.335876X0.017678X0*%
%ADD12RoundRect,0.050400X-0.069600X-0.249600X0.069600X-0.249600X0.069600X0.249600X-0.069600X0.249600X0*%
%ADD13RoundRect,0.050400X-0.249600X-0.069600X0.249600X-0.069600X0.249600X0.069600X-0.249600X0.069600X0*%
%ADD14RoundRect,0.050000X-0.050000X-0.250000X0.050000X-0.250000X0.050000X0.250000X-0.050000X0.250000X0*%
%ADD15FreePoly0,0.000000*%
%ADD16RoundRect,0.225000X0.250000X-0.225000X0.250000X0.225000X-0.250000X0.225000X-0.250000X-0.225000X0*%
%ADD17RoundRect,0.200000X-0.200000X-0.275000X0.200000X-0.275000X0.200000X0.275000X-0.200000X0.275000X0*%
%ADD18RotRect,1.700000X1.700000X127.500000*%
%ADD19HorizOval,1.700000X0.000000X0.000000X0.000000X0.000000X0*%
%ADD20RotRect,1.000000X1.000000X130.000000*%
%ADD21HorizOval,1.000000X0.000000X0.000000X0.000000X0.000000X0*%
%ADD22RoundRect,0.218750X-0.256250X0.218750X-0.256250X-0.218750X0.256250X-0.218750X0.256250X0.218750X0*%
%ADD23RotRect,1.700000X1.700000X232.500000*%
%ADD24HorizOval,1.700000X0.000000X0.000000X0.000000X0.000000X0*%
%ADD25RoundRect,0.200000X0.200000X0.275000X-0.200000X0.275000X-0.200000X-0.275000X0.200000X-0.275000X0*%
%ADD26FreePoly1,120.000000*%
%ADD27FreePoly2,120.000000*%
%ADD28RoundRect,0.218750X0.335876X0.026517X0.026517X0.335876X-0.335876X-0.026517X-0.026517X-0.335876X0*%
%ADD29RoundRect,0.225000X-0.299716X0.152629X-0.183247X-0.282038X0.299716X-0.152629X0.183247X0.282038X0*%
%ADD30RoundRect,0.200000X-0.053033X0.335876X-0.335876X0.053033X0.053033X-0.335876X0.335876X-0.053033X0*%
%ADD31RoundRect,0.225000X0.330695X0.061367X-0.026314X0.335310X-0.330695X-0.061367X0.026314X-0.335310X0*%
%ADD32RoundRect,0.200000X-0.275000X0.200000X-0.275000X-0.200000X0.275000X-0.200000X0.275000X0.200000X0*%
%ADD33RoundRect,0.225000X0.225000X0.250000X-0.225000X0.250000X-0.225000X-0.250000X0.225000X-0.250000X0*%
%ADD34RoundRect,0.225000X-0.250000X0.225000X-0.250000X-0.225000X0.250000X-0.225000X0.250000X0.225000X0*%
%ADD35RoundRect,0.200000X0.275000X-0.200000X0.275000X0.200000X-0.275000X0.200000X-0.275000X-0.200000X0*%
%ADD36RoundRect,0.225000X-0.183247X0.282038X-0.299716X-0.152629X0.183247X-0.282038X0.299716X0.152629X0*%
%ADD37R,0.600000X0.200000*%
%ADD38RoundRect,0.075000X0.100000X-0.275000X0.100000X0.275000X-0.100000X0.275000X-0.100000X-0.275000X0*%
%ADD39RoundRect,0.200000X0.138157X-0.310705X0.338157X0.035705X-0.138157X0.310705X-0.338157X-0.035705X0*%
%ADD40R,1.000000X2.500000*%
%ADD41R,1.800000X1.000000*%
%ADD42RotRect,1.700000X1.700000X60.000000*%
%ADD43HorizOval,1.700000X0.000000X0.000000X0.000000X0.000000X0*%
%ADD44RoundRect,0.200000X0.335876X0.053033X0.053033X0.335876X-0.335876X-0.053033X-0.053033X-0.335876X0*%
%ADD45R,1.100000X0.700000*%
%ADD46R,1.100000X1.400000*%
%ADD47R,1.350000X0.400000*%
%ADD48R,0.695000X1.150000*%
%ADD49C,0.800000*%
%ADD50RoundRect,0.200000X-0.138157X0.310705X-0.338157X-0.035705X0.138157X-0.310705X0.338157X0.035705X0*%
%ADD51RoundRect,0.200000X-0.082105X0.329975X-0.339220X0.023558X0.082105X-0.329975X0.339220X-0.023558X0*%
%ADD52RotRect,1.700000X1.700000X330.000000*%
%ADD53HorizOval,1.700000X0.000000X0.000000X0.000000X0.000000X0*%
%ADD54RoundRect,0.250000X0.475000X-0.250000X0.475000X0.250000X-0.475000X0.250000X-0.475000X-0.250000X0*%
%ADD55RoundRect,0.150000X-0.150000X0.587500X-0.150000X-0.587500X0.150000X-0.587500X0.150000X0.587500X0*%
G04 APERTURE END LIST*
D10*
%TO.C,H2*%
X120000000Y-100000000D03*
%TD*%
%TO.C,H1*%
X93000000Y-81000000D03*
%TD*%
D11*
%TO.C,C5*%
X92151992Y-114248008D03*
X93248008Y-113151992D03*
%TD*%
D12*
%TO.C,U2*%
X97249998Y-115450000D03*
D13*
X96349998Y-115050000D03*
X96349998Y-114550000D03*
X96349998Y-114050000D03*
X96349998Y-113550000D03*
X96349998Y-113050000D03*
X96349998Y-112550000D03*
X96349998Y-112050000D03*
X96349998Y-111550000D03*
D12*
X97249998Y-111150000D03*
X98749998Y-111150000D03*
D13*
X99649998Y-111550000D03*
X99649998Y-112050000D03*
X99649998Y-112550000D03*
X99649998Y-113050000D03*
X99649998Y-113550000D03*
X99649998Y-114050000D03*
X99649998Y-114550000D03*
X99649998Y-115050000D03*
D12*
X98749998Y-115450000D03*
D14*
X97724998Y-111150000D03*
X98274998Y-115450000D03*
X98274998Y-111150000D03*
X97724998Y-115450000D03*
D15*
X97999998Y-113300000D03*
%TD*%
D16*
%TO.C,C2*%
X101900000Y-118875003D03*
X101900000Y-117325003D03*
%TD*%
D17*
%TO.C,R11*%
X101475000Y-89600000D03*
X103125000Y-89600000D03*
%TD*%
D18*
%TO.C,J2*%
X111433882Y-114566116D03*
D19*
X109418765Y-116112370D03*
%TD*%
D16*
%TO.C,C17*%
X101900001Y-115875000D03*
X101900001Y-114325000D03*
%TD*%
D20*
%TO.C,TP1*%
X88716987Y-85163398D03*
D21*
X87744111Y-85979738D03*
%TD*%
D22*
%TO.C,D11*%
X81600001Y-94512498D03*
X81600001Y-96087498D03*
%TD*%
D23*
%TO.C,J1*%
X86600000Y-113200000D03*
D24*
X88615117Y-114746254D03*
X90630235Y-116292508D03*
%TD*%
D25*
%TO.C,R6*%
X108025000Y-112100001D03*
X106375000Y-112100001D03*
%TD*%
D26*
%TO.C,JP11*%
X84225000Y-109862917D03*
D27*
X83575000Y-108737083D03*
%TD*%
D16*
%TO.C,C8*%
X87200000Y-106275000D03*
X87200000Y-104725000D03*
%TD*%
%TO.C,C15*%
X98900000Y-118874999D03*
X98900000Y-117324999D03*
%TD*%
%TO.C,C14*%
X100400002Y-118874999D03*
X100400002Y-117324999D03*
%TD*%
D28*
%TO.C,D12*%
X87956847Y-90156847D03*
X86843153Y-89043153D03*
%TD*%
D29*
%TO.C,C6*%
X103550531Y-117139629D03*
X103951701Y-118636815D03*
%TD*%
D30*
%TO.C,R16*%
X85983363Y-92516637D03*
X84816637Y-93683363D03*
%TD*%
D31*
%TO.C,C4*%
X91014849Y-113971790D03*
X89785151Y-113028210D03*
%TD*%
D32*
%TO.C,R1*%
X101000000Y-110675000D03*
X101000000Y-112325000D03*
%TD*%
D33*
%TO.C,C13*%
X107975000Y-113600000D03*
X106425000Y-113600000D03*
%TD*%
D16*
%TO.C,C12*%
X93100000Y-111375001D03*
X93100000Y-109825001D03*
%TD*%
D34*
%TO.C,C16*%
X88600000Y-110524999D03*
X88600000Y-112074999D03*
%TD*%
D35*
%TO.C,R4*%
X83300002Y-96124999D03*
X83300002Y-94474999D03*
%TD*%
D36*
%TO.C,C10*%
X92651698Y-115963178D03*
X92250528Y-117460364D03*
%TD*%
D37*
%TO.C,U1*%
X89950000Y-111550000D03*
X89950000Y-111050000D03*
X89950000Y-110550000D03*
D38*
X90225000Y-110300000D03*
D37*
X89950000Y-110050000D03*
D38*
X90975000Y-110300000D03*
D37*
X91250000Y-110050000D03*
X91250000Y-110550000D03*
X91250000Y-111050000D03*
X91250000Y-111550000D03*
%TD*%
D39*
%TO.C,R2*%
X89187500Y-102014471D03*
X90012500Y-100585529D03*
%TD*%
D28*
%TO.C,D13*%
X86756847Y-91356848D03*
X85643153Y-90243154D03*
%TD*%
D16*
%TO.C,C34*%
X92100000Y-107375000D03*
X92100000Y-105825000D03*
%TD*%
D29*
%TO.C,C1*%
X106448302Y-116363178D03*
X106849472Y-117860364D03*
%TD*%
D40*
%TO.C,U3*%
X109500000Y-107600000D03*
X107500000Y-107600000D03*
X105500000Y-107600000D03*
X103500000Y-107600000D03*
X101500000Y-107600000D03*
X99500000Y-107600000D03*
X97500000Y-107600000D03*
X95500000Y-107600000D03*
D41*
X94000000Y-105000000D03*
X94000000Y-103000000D03*
X94000000Y-101000000D03*
X94000000Y-99000000D03*
X94000000Y-97000000D03*
X94000000Y-95000000D03*
D40*
X95500000Y-92400000D03*
X97500000Y-92400000D03*
X99500000Y-92400000D03*
X101500000Y-92400000D03*
X103500000Y-92400000D03*
X105500000Y-92400000D03*
X107500000Y-92400000D03*
X109500000Y-92400000D03*
%TD*%
D16*
%TO.C,C18*%
X104900000Y-115074999D03*
X104900000Y-113524999D03*
%TD*%
D17*
%TO.C,R3*%
X109475000Y-112100000D03*
X111125000Y-112100000D03*
%TD*%
D16*
%TO.C,C19*%
X103399998Y-115474999D03*
X103399998Y-113924999D03*
%TD*%
D32*
%TO.C,R17*%
X83300000Y-91475000D03*
X83300000Y-93125000D03*
%TD*%
D42*
%TO.C,J5*%
X110800000Y-85900000D03*
D43*
X108600295Y-84630000D03*
X106400591Y-83360000D03*
%TD*%
D44*
%TO.C,R15*%
X89044023Y-89122703D03*
X87877297Y-87955977D03*
%TD*%
D17*
%TO.C,R13*%
X96475000Y-90000000D03*
X98125000Y-90000000D03*
%TD*%
D35*
%TO.C,R12*%
X82200000Y-106325000D03*
X82200000Y-104675000D03*
%TD*%
D29*
%TO.C,C7*%
X104999415Y-116751407D03*
X105400585Y-118248593D03*
%TD*%
D25*
%TO.C,R9*%
X109525000Y-110200000D03*
X107875000Y-110200000D03*
%TD*%
D45*
%TO.C,SW1*%
X83200000Y-101400000D03*
X83200000Y-98600000D03*
D46*
X83350000Y-100000000D03*
D47*
X81575000Y-97900000D03*
D48*
X81247500Y-98275000D03*
D49*
X81850000Y-98150000D03*
D48*
X81247500Y-101725000D03*
D49*
X81850000Y-101850000D03*
D47*
X81575000Y-102100000D03*
%TD*%
D17*
%TO.C,R8*%
X102725000Y-110549997D03*
X104375000Y-110549997D03*
%TD*%
D50*
%TO.C,R14*%
X88612500Y-99785529D03*
X87787500Y-101214471D03*
%TD*%
D51*
%TO.C,R18*%
X85780300Y-87354615D03*
X84719700Y-88618589D03*
%TD*%
D17*
%TO.C,R10*%
X96675000Y-86900000D03*
X98325000Y-86900000D03*
%TD*%
D52*
%TO.C,J4*%
X85900000Y-99200000D03*
D53*
X87170000Y-97000295D03*
X88440000Y-94800591D03*
X89710000Y-92600886D03*
X90980000Y-90401182D03*
X92250000Y-88201477D03*
%TD*%
D36*
%TO.C,C11*%
X95549474Y-116739636D03*
X95148304Y-118236822D03*
%TD*%
%TO.C,C9*%
X94100584Y-116351408D03*
X93699414Y-117848594D03*
%TD*%
D54*
%TO.C,C22*%
X90300000Y-107350000D03*
X90300000Y-105450000D03*
%TD*%
D25*
%TO.C,R5*%
X97025000Y-109800000D03*
X95375000Y-109800000D03*
%TD*%
D17*
%TO.C,R7*%
X102425000Y-112050000D03*
X104075000Y-112050000D03*
%TD*%
D34*
%TO.C,C23*%
X103300000Y-83250000D03*
X103300000Y-84800000D03*
%TD*%
D55*
%TO.C,Q1*%
X83750000Y-104562500D03*
X85650000Y-104562500D03*
X84700000Y-106437500D03*
%TD*%
M02*
