%TF.GenerationSoftware,KiCad,Pcbnew,(6.0.5)*%
%TF.CreationDate,2022-05-23T16:41:31+02:00*%
%TF.ProjectId,qi-lamp-charger,71692d6c-616d-4702-9d63-686172676572,1.0.0*%
%TF.SameCoordinates,Original*%
%TF.FileFunction,Legend,Bot*%
%TF.FilePolarity,Positive*%
%FSLAX46Y46*%
G04 Gerber Fmt 4.6, Leading zero omitted, Abs format (unit mm)*
G04 Created by KiCad (PCBNEW (6.0.5)) date 2022-05-23 16:41:31*
%MOMM*%
%LPD*%
G01*
G04 APERTURE LIST*
G04 Aperture macros list*
%AMRoundRect*
0 Rectangle with rounded corners*
0 $1 Rounding radius*
0 $2 $3 $4 $5 $6 $7 $8 $9 X,Y pos of 4 corners*
0 Add a 4 corners polygon primitive as box body*
4,1,4,$2,$3,$4,$5,$6,$7,$8,$9,$2,$3,0*
0 Add four circle primitives for the rounded corners*
1,1,$1+$1,$2,$3*
1,1,$1+$1,$4,$5*
1,1,$1+$1,$6,$7*
1,1,$1+$1,$8,$9*
0 Add four rect primitives between the rounded corners*
20,1,$1+$1,$2,$3,$4,$5,0*
20,1,$1+$1,$4,$5,$6,$7,0*
20,1,$1+$1,$6,$7,$8,$9,0*
20,1,$1+$1,$8,$9,$2,$3,0*%
%AMHorizOval*
0 Thick line with rounded ends*
0 $1 width*
0 $2 $3 position (X,Y) of the first rounded end (center of the circle)*
0 $4 $5 position (X,Y) of the second rounded end (center of the circle)*
0 Add line between two ends*
20,1,$1,$2,$3,$4,$5,0*
0 Add two circle primitives to create the rounded ends*
1,1,$1,$2,$3*
1,1,$1,$4,$5*%
%AMRotRect*
0 Rectangle, with rotation*
0 The origin of the aperture is its center*
0 $1 length*
0 $2 width*
0 $3 Rotation angle, in degrees counterclockwise*
0 Add horizontal line*
21,1,$1,$2,0,0,$3*%
%AMFreePoly0*
4,1,13,0.375000,1.525000,1.025000,1.525000,1.025000,-1.525000,0.375000,-1.525000,0.375000,-1.925000,-0.375000,-1.925000,-0.375000,-1.525000,-1.025000,-1.525000,-1.025000,1.525000,-0.375000,1.525000,-0.375000,1.925000,0.375000,1.925000,0.375000,1.525000,0.375000,1.525000,$1*%
%AMFreePoly1*
4,1,22,0.500000,-0.750000,0.000000,-0.750000,-0.000001,-0.745033,-0.079941,-0.743568,-0.215257,-0.701293,-0.333266,-0.622738,-0.424486,-0.514219,-0.481581,-0.384461,-0.499164,-0.250000,-0.500000,-0.250000,-0.500000,0.250000,-0.499164,0.250000,-0.499963,0.256109,-0.478152,0.396186,-0.417904,0.524511,-0.324060,0.630769,-0.204165,0.706418,-0.067858,0.745374,0.000000,0.744958,0.000000,0.750000,
0.500000,0.750000,0.500000,-0.750000,0.500000,-0.750000,$1*%
%AMFreePoly2*
4,1,20,0.000000,0.744958,0.073905,0.744508,0.209727,0.703889,0.328688,0.626782,0.421226,0.519385,0.479903,0.390333,0.500000,0.250000,0.500000,-0.250000,0.499851,-0.262216,0.476331,-0.402017,0.414519,-0.529596,0.319384,-0.634700,0.198575,-0.708877,0.061801,-0.746166,-0.000001,-0.745033,0.000000,-0.750000,-0.500000,-0.750000,-0.500000,0.750000,0.000000,0.750000,0.000000,0.744958,
0.000000,0.744958,$1*%
G04 Aperture macros list end*
%ADD10C,0.150000*%
%ADD11C,0.120000*%
%ADD12C,2.200000*%
%ADD13RoundRect,0.225000X0.017678X-0.335876X0.335876X-0.017678X-0.017678X0.335876X-0.335876X0.017678X0*%
%ADD14RoundRect,0.050400X-0.069600X-0.249600X0.069600X-0.249600X0.069600X0.249600X-0.069600X0.249600X0*%
%ADD15RoundRect,0.050400X-0.249600X-0.069600X0.249600X-0.069600X0.249600X0.069600X-0.249600X0.069600X0*%
%ADD16RoundRect,0.050000X-0.050000X-0.250000X0.050000X-0.250000X0.050000X0.250000X-0.050000X0.250000X0*%
%ADD17FreePoly0,0.000000*%
%ADD18RoundRect,0.225000X0.250000X-0.225000X0.250000X0.225000X-0.250000X0.225000X-0.250000X-0.225000X0*%
%ADD19RoundRect,0.200000X-0.200000X-0.275000X0.200000X-0.275000X0.200000X0.275000X-0.200000X0.275000X0*%
%ADD20RotRect,1.700000X1.700000X127.500000*%
%ADD21HorizOval,1.700000X0.000000X0.000000X0.000000X0.000000X0*%
%ADD22RotRect,1.000000X1.000000X130.000000*%
%ADD23HorizOval,1.000000X0.000000X0.000000X0.000000X0.000000X0*%
%ADD24RoundRect,0.218750X-0.256250X0.218750X-0.256250X-0.218750X0.256250X-0.218750X0.256250X0.218750X0*%
%ADD25RotRect,1.700000X1.700000X232.500000*%
%ADD26HorizOval,1.700000X0.000000X0.000000X0.000000X0.000000X0*%
%ADD27RoundRect,0.200000X0.200000X0.275000X-0.200000X0.275000X-0.200000X-0.275000X0.200000X-0.275000X0*%
%ADD28FreePoly1,120.000000*%
%ADD29FreePoly2,120.000000*%
%ADD30RoundRect,0.218750X0.335876X0.026517X0.026517X0.335876X-0.335876X-0.026517X-0.026517X-0.335876X0*%
%ADD31RoundRect,0.225000X-0.299716X0.152629X-0.183247X-0.282038X0.299716X-0.152629X0.183247X0.282038X0*%
%ADD32RoundRect,0.200000X-0.053033X0.335876X-0.335876X0.053033X0.053033X-0.335876X0.335876X-0.053033X0*%
%ADD33RoundRect,0.225000X0.330695X0.061367X-0.026314X0.335310X-0.330695X-0.061367X0.026314X-0.335310X0*%
%ADD34RoundRect,0.200000X-0.275000X0.200000X-0.275000X-0.200000X0.275000X-0.200000X0.275000X0.200000X0*%
%ADD35RoundRect,0.225000X0.225000X0.250000X-0.225000X0.250000X-0.225000X-0.250000X0.225000X-0.250000X0*%
%ADD36RoundRect,0.225000X-0.250000X0.225000X-0.250000X-0.225000X0.250000X-0.225000X0.250000X0.225000X0*%
%ADD37RoundRect,0.200000X0.275000X-0.200000X0.275000X0.200000X-0.275000X0.200000X-0.275000X-0.200000X0*%
%ADD38RoundRect,0.225000X-0.183247X0.282038X-0.299716X-0.152629X0.183247X-0.282038X0.299716X0.152629X0*%
%ADD39R,0.600000X0.200000*%
%ADD40RoundRect,0.075000X0.100000X-0.275000X0.100000X0.275000X-0.100000X0.275000X-0.100000X-0.275000X0*%
%ADD41RoundRect,0.200000X0.138157X-0.310705X0.338157X0.035705X-0.138157X0.310705X-0.338157X-0.035705X0*%
%ADD42R,1.000000X2.500000*%
%ADD43R,1.800000X1.000000*%
%ADD44RotRect,1.700000X1.700000X60.000000*%
%ADD45HorizOval,1.700000X0.000000X0.000000X0.000000X0.000000X0*%
%ADD46RoundRect,0.200000X0.335876X0.053033X0.053033X0.335876X-0.335876X-0.053033X-0.053033X-0.335876X0*%
%ADD47R,1.100000X0.700000*%
%ADD48R,1.100000X1.400000*%
%ADD49R,1.350000X0.400000*%
%ADD50R,0.695000X1.150000*%
%ADD51C,0.800000*%
%ADD52RoundRect,0.200000X-0.138157X0.310705X-0.338157X-0.035705X0.138157X-0.310705X0.338157X0.035705X0*%
%ADD53RoundRect,0.200000X-0.082105X0.329975X-0.339220X0.023558X0.082105X-0.329975X0.339220X-0.023558X0*%
%ADD54RotRect,1.700000X1.700000X330.000000*%
%ADD55HorizOval,1.700000X0.000000X0.000000X0.000000X0.000000X0*%
%ADD56RoundRect,0.250000X0.475000X-0.250000X0.475000X0.250000X-0.475000X0.250000X-0.475000X-0.250000X0*%
%ADD57RoundRect,0.150000X-0.150000X0.587500X-0.150000X-0.587500X0.150000X-0.587500X0.150000X0.587500X0*%
G04 APERTURE END LIST*
D10*
X108635706Y-88818924D02*
X108629326Y-88925212D01*
X108557898Y-89048930D01*
X108445230Y-89148838D01*
X108315132Y-89183698D01*
X108208844Y-89177318D01*
X108020077Y-89123319D01*
X107896359Y-89051891D01*
X107755212Y-88915413D01*
X107696543Y-88826555D01*
X107661683Y-88696457D01*
X107691872Y-88548930D01*
X107739491Y-88466451D01*
X107852159Y-88366543D01*
X107917208Y-88349113D01*
X108205883Y-88515780D01*
X108110645Y-88680737D01*
X108049015Y-87930340D02*
X108915041Y-88430340D01*
X108334729Y-87435468D01*
X109200755Y-87935468D01*
X108572825Y-87023075D02*
X109438850Y-87523075D01*
X109557898Y-87316879D01*
X109588087Y-87169351D01*
X109553227Y-87039254D01*
X109494558Y-86950395D01*
X109353411Y-86813918D01*
X109229693Y-86742489D01*
X109040926Y-86688491D01*
X108934638Y-86682111D01*
X108804540Y-86716970D01*
X108691872Y-86816879D01*
X108572825Y-87023075D01*
X106626143Y-87174827D02*
X107492168Y-87674827D01*
X107611216Y-87468631D01*
X107641405Y-87321103D01*
X107606545Y-87191006D01*
X107547876Y-87102147D01*
X107406729Y-86965670D01*
X107283011Y-86894241D01*
X107094244Y-86840243D01*
X106987956Y-86833863D01*
X106857858Y-86868722D01*
X106745190Y-86968631D01*
X106626143Y-87174827D01*
X107007483Y-86295279D02*
X107469363Y-86561946D01*
X107700303Y-86695279D02*
X107648264Y-86709223D01*
X107634320Y-86657184D01*
X107686359Y-86643240D01*
X107700303Y-86695279D01*
X107634320Y-86657184D01*
X107659839Y-86232031D02*
X107197959Y-85965365D01*
X107593856Y-86193936D02*
X107645895Y-86179992D01*
X107716982Y-86133057D01*
X107774125Y-86034083D01*
X107779229Y-85949052D01*
X107732293Y-85877966D01*
X107369388Y-85668442D01*
X106031201Y-86985297D02*
X105331842Y-86196622D01*
X106364534Y-86407947D01*
X105995090Y-85809748D02*
X106376042Y-85149919D01*
X105855651Y-85289357D02*
X106515480Y-85670310D01*
X93677671Y-86437812D02*
X93571382Y-86431432D01*
X93447665Y-86360004D01*
X93347756Y-86247336D01*
X93312897Y-86117238D01*
X93319276Y-86010950D01*
X93373275Y-85822183D01*
X93444704Y-85698465D01*
X93581181Y-85557317D01*
X93670039Y-85498648D01*
X93800137Y-85463789D01*
X93947665Y-85493978D01*
X94030143Y-85541597D01*
X94130052Y-85654265D01*
X94147481Y-85719314D01*
X93980815Y-86007989D01*
X93815857Y-85912751D01*
X94566254Y-85851121D02*
X94066254Y-86717146D01*
X95061126Y-86136835D01*
X94561126Y-87002861D01*
X95473519Y-86374930D02*
X94973519Y-87240956D01*
X95179715Y-87360004D01*
X95327243Y-87390193D01*
X95457340Y-87355333D01*
X95546199Y-87296664D01*
X95682676Y-87155516D01*
X95754105Y-87031799D01*
X95808104Y-86843032D01*
X95814483Y-86736744D01*
X95779624Y-86606646D01*
X95679715Y-86493978D01*
X95473519Y-86374930D01*
X94628947Y-84028249D02*
X94128947Y-84894274D01*
X94335143Y-85013322D01*
X94482671Y-85043511D01*
X94612768Y-85008651D01*
X94701627Y-84949982D01*
X94838104Y-84808834D01*
X94909533Y-84685117D01*
X94963531Y-84496350D01*
X94969911Y-84390062D01*
X94935052Y-84259964D01*
X94835143Y-84147296D01*
X94628947Y-84028249D01*
X94871254Y-85322845D02*
X95366126Y-85608560D01*
X95618690Y-84599677D02*
X95118690Y-85465703D01*
X96649673Y-85194915D02*
X96122902Y-85440642D01*
X96154801Y-84909201D02*
X95654801Y-85775226D01*
X95984715Y-85965703D01*
X96091004Y-85972082D01*
X96156052Y-85954652D01*
X96244911Y-85895983D01*
X96316339Y-85772265D01*
X96322719Y-85665977D01*
X96305289Y-85600929D01*
X96246620Y-85512070D01*
X95916706Y-85321594D01*
X95079994Y-83199393D02*
X95413327Y-82622043D01*
X95127613Y-83116914D02*
X95145043Y-83181963D01*
X95203712Y-83270822D01*
X95327430Y-83342250D01*
X95433718Y-83348630D01*
X95522576Y-83289961D01*
X95784481Y-82836328D01*
X96291654Y-84338831D02*
X96192204Y-82796799D01*
X97451483Y-83853758D02*
X97392814Y-83764900D01*
X97227856Y-83669662D01*
X97121568Y-83663282D01*
X97056519Y-83680712D01*
X96967661Y-83739381D01*
X96824804Y-83986817D01*
X96818424Y-84093105D01*
X96835854Y-84158154D01*
X96894523Y-84247012D01*
X97059480Y-84342250D01*
X97165768Y-84348630D01*
X95635848Y-82046148D02*
X96130720Y-82331862D01*
X96383284Y-81322980D02*
X95883284Y-82189005D01*
X96336917Y-82450910D02*
X97414267Y-81918218D01*
X96914267Y-82784243D02*
X96836917Y-81584885D01*
X97744181Y-82108694D02*
X97244181Y-82974720D01*
X97450378Y-83093767D01*
X97597905Y-83123956D01*
X97728003Y-83089097D01*
X97816861Y-83030428D01*
X97953339Y-82889280D01*
X98024767Y-82765562D01*
X98078766Y-82576795D01*
X98085146Y-82470507D01*
X98050286Y-82340410D01*
X97950378Y-82227742D01*
X97744181Y-82108694D01*
X97456340Y-80083441D02*
X96929569Y-80329167D01*
X96961468Y-79797726D02*
X96461468Y-80663752D01*
X96791382Y-80854228D01*
X96897671Y-80860608D01*
X96962719Y-80843178D01*
X97051578Y-80784509D01*
X97123006Y-80660791D01*
X97129386Y-80554503D01*
X97111956Y-80489454D01*
X97053287Y-80400596D01*
X96723373Y-80210120D01*
X97245015Y-81116133D02*
X98322365Y-80583441D01*
X97822365Y-81449466D02*
X97745015Y-80250107D01*
X98652280Y-80773917D02*
X98152280Y-81639942D01*
X98358476Y-81758990D01*
X98506004Y-81789179D01*
X98636101Y-81754320D01*
X98724960Y-81695651D01*
X98861437Y-81554503D01*
X98932865Y-81430785D01*
X98986864Y-81242018D01*
X98993244Y-81135730D01*
X98958384Y-81005632D01*
X98858476Y-80892965D01*
X98652280Y-80773917D01*
X98364438Y-78748664D02*
X97837668Y-78994390D01*
X97869566Y-78462949D02*
X97369566Y-79328975D01*
X97699481Y-79519451D01*
X97805769Y-79525831D01*
X97870818Y-79508401D01*
X97959676Y-79449732D01*
X98031105Y-79326014D01*
X98037484Y-79219726D01*
X98020055Y-79154677D01*
X97961386Y-79065819D01*
X97631471Y-78875342D01*
X98111874Y-79757546D02*
X98606745Y-80043260D01*
X98859310Y-79034378D02*
X98359310Y-79900403D01*
X99330372Y-79361331D02*
X99477899Y-79391521D01*
X99684096Y-79510568D01*
X99742765Y-79599427D01*
X99760195Y-79664476D01*
X99753815Y-79770764D01*
X99706196Y-79853242D01*
X99617337Y-79911911D01*
X99552289Y-79929341D01*
X99446000Y-79922961D01*
X99257234Y-79868963D01*
X99150946Y-79862583D01*
X99085897Y-79880013D01*
X98997038Y-79938682D01*
X98949419Y-80021160D01*
X98943040Y-80127448D01*
X98960469Y-80192497D01*
X99019139Y-80281356D01*
X99225335Y-80400403D01*
X99372862Y-80430593D01*
%TO.C,J2*%
X110753032Y-117379828D02*
X110648486Y-117400026D01*
X110497371Y-117515981D01*
X110450802Y-117611737D01*
X110442012Y-117678504D01*
X110462211Y-117783050D01*
X110636143Y-118009723D01*
X110731899Y-118056292D01*
X110798666Y-118065082D01*
X110903212Y-118044883D01*
X111054327Y-117928929D01*
X111100896Y-117833173D01*
X111177388Y-116994185D02*
X111130819Y-117089941D01*
X111122029Y-117156709D01*
X111142228Y-117261255D01*
X111316160Y-117487927D01*
X111411916Y-117534496D01*
X111478683Y-117543286D01*
X111583229Y-117523088D01*
X111696565Y-117436122D01*
X111743134Y-117340366D01*
X111751924Y-117273598D01*
X111731726Y-117169052D01*
X111557794Y-116942380D01*
X111462038Y-116895811D01*
X111395271Y-116887021D01*
X111290724Y-116907220D01*
X111177388Y-116994185D01*
X111781848Y-116530367D02*
X112187689Y-117059269D01*
X112390609Y-117323721D02*
X112323842Y-117314930D01*
X112332632Y-117248163D01*
X112399399Y-117256953D01*
X112390609Y-117323721D01*
X112332632Y-117248163D01*
X112272971Y-116153515D02*
X112226403Y-116249271D01*
X112246601Y-116353817D01*
X112768397Y-117033834D01*
%TO.C,TP1*%
X87641875Y-83097540D02*
X87563049Y-83225845D01*
X87557180Y-83292932D01*
X87581920Y-83396498D01*
X87673746Y-83505933D01*
X87771442Y-83548281D01*
X87838530Y-83554150D01*
X87942095Y-83529410D01*
X88233922Y-83284539D01*
X87591134Y-82518494D01*
X87335786Y-82732757D01*
X87293438Y-82830453D01*
X87287569Y-82897540D01*
X87312308Y-83001106D01*
X87373526Y-83074063D01*
X87471223Y-83116410D01*
X87538310Y-83122280D01*
X87641875Y-83097540D01*
X87897223Y-82883278D01*
X87358442Y-84019153D02*
X87400790Y-83921457D01*
X87406659Y-83854370D01*
X87381920Y-83750804D01*
X87198266Y-83531935D01*
X87100570Y-83489587D01*
X87033483Y-83483717D01*
X86929917Y-83508457D01*
X86820482Y-83600284D01*
X86778135Y-83697980D01*
X86772265Y-83765067D01*
X86797005Y-83868633D01*
X86980658Y-84087503D01*
X87078355Y-84129850D01*
X87145442Y-84135720D01*
X87249007Y-84110980D01*
X87358442Y-84019153D01*
X86665355Y-84600723D02*
X86707702Y-84503027D01*
X86713572Y-84435940D01*
X86688832Y-84332374D01*
X86505178Y-84113504D01*
X86407482Y-84071157D01*
X86340395Y-84065287D01*
X86236829Y-84090027D01*
X86127395Y-84181854D01*
X86085047Y-84279550D01*
X86079177Y-84346637D01*
X86103917Y-84450203D01*
X86287571Y-84669072D01*
X86385267Y-84711420D01*
X86452354Y-84717289D01*
X86555920Y-84692550D01*
X86665355Y-84600723D01*
X85762611Y-84487943D02*
X85470785Y-84732814D01*
X85438914Y-84324422D02*
X85989875Y-84981031D01*
X86014614Y-85084597D01*
X85972267Y-85182293D01*
X85899310Y-85243511D01*
%TO.C,J1*%
X85397826Y-115369752D02*
X85881393Y-115740807D01*
X86528045Y-116525108D02*
X86852718Y-116101987D01*
X86574427Y-116464663D02*
X86581459Y-116518076D01*
X86618714Y-116594681D01*
X86709383Y-116664254D01*
X86793020Y-116680413D01*
X86869625Y-116643158D01*
X87124725Y-116310705D01*
X87011613Y-116896163D02*
X87253397Y-117081690D01*
X86939946Y-117177297D02*
X87357382Y-116633283D01*
X87433987Y-116596028D01*
X87517624Y-116612187D01*
X87578070Y-116658569D01*
X88038447Y-117059846D02*
X88001192Y-116983241D01*
X87880300Y-116890478D01*
X87796663Y-116874319D01*
X87743249Y-116881351D01*
X87666644Y-116918606D01*
X87527499Y-117099944D01*
X87511340Y-117183581D01*
X87518372Y-117236995D01*
X87555627Y-117313599D01*
X87676519Y-117406363D01*
X87760156Y-117422522D01*
X88631685Y-117851180D02*
X89115253Y-118222234D01*
X89058996Y-117794923D02*
X88687942Y-118278491D01*
%TO.C,JP11*%
X85791773Y-107563168D02*
X85553678Y-107150775D01*
X84687652Y-107650775D01*
X86107676Y-108205567D02*
X86101297Y-108099279D01*
X86006059Y-107934322D01*
X85917200Y-107875653D01*
X85810912Y-107882033D01*
X85480998Y-108072509D01*
X85422329Y-108161367D01*
X85428708Y-108267655D01*
X85523946Y-108432613D01*
X85612805Y-108491282D01*
X85719093Y-108484902D01*
X85801572Y-108437283D01*
X85645955Y-107977271D01*
X86601297Y-108965305D02*
X85735271Y-109465305D01*
X86560057Y-108989114D02*
X86553678Y-108882826D01*
X86458440Y-108717869D01*
X86369581Y-108659200D01*
X86304532Y-108641770D01*
X86198244Y-108648150D01*
X85950808Y-108791007D01*
X85892139Y-108879865D01*
X85874710Y-108944914D01*
X85881089Y-109051202D01*
X85976327Y-109216159D01*
X86065186Y-109274829D01*
X86448553Y-109548363D02*
X87141373Y-109148363D01*
X86481544Y-109529316D02*
X86486648Y-109614346D01*
X86562838Y-109746312D01*
X86633925Y-109793247D01*
X86685964Y-109807191D01*
X86770995Y-109802087D01*
X86968943Y-109687802D01*
X87015879Y-109616715D01*
X87029822Y-109564676D01*
X87024719Y-109479645D01*
X86948528Y-109347679D01*
X86877441Y-109300744D01*
X86772362Y-110109218D02*
X87310433Y-109974517D01*
X87056709Y-110296959D01*
X87462814Y-110238448D01*
X87077124Y-110637081D01*
X87691385Y-110634346D02*
X87229505Y-110901012D01*
X87361471Y-110824822D02*
X87314535Y-110895909D01*
X87300592Y-110947948D01*
X87305695Y-111032978D01*
X87343791Y-111098961D01*
%TO.C,J5*%
X108399517Y-80841858D02*
X108688192Y-81008525D01*
X109073815Y-80626321D02*
X108661421Y-80388226D01*
X108161421Y-81254252D01*
X108573815Y-81492347D01*
X109362490Y-80792988D02*
X109482789Y-81632243D01*
X109029156Y-81370338D02*
X109816122Y-81054893D01*
X109688985Y-81751291D02*
X110018900Y-81941767D01*
X109646036Y-82111394D02*
X110074608Y-81369087D01*
X110163466Y-81310418D01*
X110269754Y-81316798D01*
X110352233Y-81364417D01*
X110593289Y-81613562D02*
X110658338Y-81596132D01*
X110640908Y-81531083D01*
X110575859Y-81548513D01*
X110593289Y-81613562D01*
X110640908Y-81531083D01*
X111465694Y-82007274D02*
X111053301Y-81769178D01*
X110553301Y-82635204D01*
X111492465Y-82627573D02*
X111781140Y-82794239D01*
X112166762Y-82412036D02*
X111754369Y-82173940D01*
X111254369Y-83039966D01*
X111666762Y-83278061D01*
X112537916Y-82626321D02*
X112037916Y-83492347D01*
X112244113Y-83611394D01*
X112391640Y-83641584D01*
X112521738Y-83606724D01*
X112610596Y-83548055D01*
X112747074Y-83406907D01*
X112818502Y-83283189D01*
X112872501Y-83094423D01*
X112878881Y-82988134D01*
X112844021Y-82858037D01*
X112744113Y-82745369D01*
X112537916Y-82626321D01*
D11*
%TO.C,C5*%
X92239970Y-113438781D02*
X92438781Y-113239970D01*
X92961219Y-114160030D02*
X93160030Y-113961219D01*
%TO.C,U2*%
X98999998Y-111000000D02*
X99799998Y-111000000D01*
X96099998Y-115600000D02*
X96999998Y-115600000D01*
X99799998Y-111300000D02*
X99799998Y-111000000D01*
X99799998Y-115600000D02*
X99799998Y-115300000D01*
X96199998Y-111000000D02*
X96999998Y-111000000D01*
X96199998Y-111300000D02*
X96199998Y-111000000D01*
X98999998Y-115600000D02*
X99799998Y-115600000D01*
%TO.C,C2*%
X101390000Y-118240583D02*
X101390000Y-117959423D01*
X102410000Y-118240583D02*
X102410000Y-117959423D01*
%TO.C,R11*%
X102062742Y-89077500D02*
X102537258Y-89077500D01*
X102062742Y-90122500D02*
X102537258Y-90122500D01*
%TO.C,J2*%
X113298695Y-114811623D02*
X112489042Y-113756463D01*
X109616671Y-114284083D02*
X107553952Y-115866863D01*
X111235976Y-116394403D02*
X109616671Y-114284083D01*
X109173257Y-117977183D02*
X107553952Y-115866863D01*
X112243535Y-115621276D02*
X113298695Y-114811623D01*
X111235976Y-116394403D02*
X109173257Y-117977183D01*
%TO.C,C17*%
X102410001Y-115240580D02*
X102410001Y-114959420D01*
X101390001Y-115240580D02*
X101390001Y-114959420D01*
%TO.C,TP1*%
X89430481Y-86013707D02*
X90012675Y-85525189D01*
X87772601Y-85220273D02*
X87421299Y-84801607D01*
X87014033Y-86190894D02*
X86498215Y-85576166D01*
X88848287Y-86502226D02*
X88496985Y-86083560D01*
X88848287Y-86502226D02*
X87925204Y-87276785D01*
X87925204Y-87276785D02*
X87409386Y-86662057D01*
X90012675Y-85525189D02*
X89299181Y-84674879D01*
X87421299Y-84801607D02*
X86498215Y-85576166D01*
%TO.C,D11*%
X80865001Y-93814998D02*
X82335001Y-93814998D01*
X80865001Y-96099998D02*
X80865001Y-93814998D01*
X82335001Y-93814998D02*
X82335001Y-96099998D01*
%TO.C,J1*%
X88417211Y-112917967D02*
X92495048Y-116047001D01*
X88417211Y-112917967D02*
X86797906Y-115028287D01*
X86797906Y-115028287D02*
X90875742Y-118157321D01*
X92495048Y-116047001D02*
X90875742Y-118157321D01*
X86354493Y-111335187D02*
X85544840Y-112390347D01*
X87409653Y-112144840D02*
X86354493Y-111335187D01*
%TO.C,R6*%
X107437258Y-111577501D02*
X106962742Y-111577501D01*
X107437258Y-112622501D02*
X106962742Y-112622501D01*
%TO.C,JP11*%
X82683975Y-109193782D02*
X83383975Y-110406218D01*
X83459808Y-107937564D02*
X82940192Y-108237564D01*
X84340192Y-110662436D02*
X84859808Y-110362436D01*
X85116025Y-109406218D02*
X84416025Y-108193782D01*
X84859807Y-110362435D02*
G75*
G03*
X85116025Y-109406218I-349998J606217D01*
G01*
X84416026Y-108193782D02*
G75*
G03*
X83459808Y-107937564I-606218J-350000D01*
G01*
X82940193Y-108237565D02*
G75*
G03*
X82683975Y-109193782I349999J-606217D01*
G01*
X83383975Y-110406218D02*
G75*
G03*
X84340192Y-110662436I606217J349999D01*
G01*
%TO.C,C8*%
X86690000Y-105640580D02*
X86690000Y-105359420D01*
X87710000Y-105640580D02*
X87710000Y-105359420D01*
%TO.C,C15*%
X99410000Y-118240579D02*
X99410000Y-117959419D01*
X98390000Y-118240579D02*
X98390000Y-117959419D01*
%TO.C,C14*%
X100910002Y-118240579D02*
X100910002Y-117959419D01*
X99890002Y-118240579D02*
X99890002Y-117959419D01*
%TO.C,D12*%
X87354038Y-88514591D02*
X88969777Y-90130330D01*
X88969777Y-90130330D02*
X87930330Y-91169777D01*
X87930330Y-91169777D02*
X86314591Y-89554038D01*
%TO.C,C6*%
X103222109Y-117884430D02*
X103294879Y-118156010D01*
X104207353Y-117620434D02*
X104280123Y-117892014D01*
%TO.C,R16*%
X85937230Y-93301697D02*
X85601697Y-93637230D01*
X85198303Y-92562770D02*
X84862770Y-92898303D01*
%TO.C,C4*%
X90821998Y-113180969D02*
X90598939Y-113009810D01*
X90201061Y-113990190D02*
X89978002Y-113819031D01*
%TO.C,R1*%
X101522500Y-111262742D02*
X101522500Y-111737258D01*
X100477500Y-111262742D02*
X100477500Y-111737258D01*
%TO.C,C13*%
X107340580Y-114110000D02*
X107059420Y-114110000D01*
X107340580Y-113090000D02*
X107059420Y-113090000D01*
%TO.C,C12*%
X92590000Y-110740581D02*
X92590000Y-110459421D01*
X93610000Y-110740581D02*
X93610000Y-110459421D01*
%TO.C,C16*%
X88090000Y-111159419D02*
X88090000Y-111440579D01*
X89110000Y-111159419D02*
X89110000Y-111440579D01*
%TO.C,R4*%
X83822502Y-95537257D02*
X83822502Y-95062741D01*
X82777502Y-95537257D02*
X82777502Y-95062741D01*
%TO.C,C10*%
X92980120Y-116707979D02*
X92907350Y-116979559D01*
X91994876Y-116443983D02*
X91922106Y-116715563D01*
%TO.C,U1*%
X89750000Y-109700000D02*
X89750000Y-111900000D01*
X91450000Y-111900000D02*
X91450000Y-109700000D01*
X91450000Y-109700000D02*
X89750000Y-109700000D01*
X89750000Y-111900000D02*
X91450000Y-111900000D01*
X89750000Y-111900000D02*
X89500000Y-112150000D01*
%TO.C,R2*%
X89028873Y-101244221D02*
X89266131Y-100833279D01*
X89933869Y-101766721D02*
X90171127Y-101355779D01*
%TO.C,D13*%
X86154038Y-89714592D02*
X87769777Y-91330331D01*
X86730330Y-92369778D02*
X85114591Y-90754039D01*
X87769777Y-91330331D02*
X86730330Y-92369778D01*
%TO.C,C34*%
X92610000Y-106740580D02*
X92610000Y-106459420D01*
X91590000Y-106740580D02*
X91590000Y-106459420D01*
%TO.C,C1*%
X106119880Y-117107979D02*
X106192650Y-117379559D01*
X107105124Y-116843983D02*
X107177894Y-117115563D01*
%TO.C,U3*%
X118120000Y-108120000D02*
X118120000Y-91880000D01*
X94500000Y-91880000D02*
X93880000Y-91880000D01*
X93880000Y-91880000D02*
X93880000Y-94000000D01*
X110500000Y-108120000D02*
X118120000Y-108120000D01*
X93880000Y-108120000D02*
X94500000Y-108120000D01*
X93880000Y-106000000D02*
X93880000Y-108120000D01*
X118120000Y-91880000D02*
X110500000Y-91880000D01*
X110500000Y-108120000D02*
X110500000Y-108730000D01*
%TO.C,C18*%
X105410000Y-114440579D02*
X105410000Y-114159419D01*
X104390000Y-114440579D02*
X104390000Y-114159419D01*
%TO.C,R3*%
X110062742Y-111577500D02*
X110537258Y-111577500D01*
X110062742Y-112622500D02*
X110537258Y-112622500D01*
%TO.C,C19*%
X103909998Y-114840579D02*
X103909998Y-114559419D01*
X102889998Y-114840579D02*
X102889998Y-114559419D01*
%TO.C,R17*%
X82777500Y-92062742D02*
X82777500Y-92537258D01*
X83822500Y-92062742D02*
X83822500Y-92537258D01*
%TO.C,J5*%
X111286814Y-87716814D02*
X111951814Y-86565000D01*
X104583777Y-83846814D02*
X105913777Y-81543186D01*
X109035148Y-86416814D02*
X104583777Y-83846814D01*
X109035148Y-86416814D02*
X110365148Y-84113186D01*
X110135000Y-87051814D02*
X111286814Y-87716814D01*
X110365148Y-84113186D02*
X105913777Y-81543186D01*
%TO.C,R15*%
X88997890Y-88337643D02*
X88662357Y-88002110D01*
X88258963Y-89076570D02*
X87923430Y-88741037D01*
%TO.C,R13*%
X97062742Y-89477500D02*
X97537258Y-89477500D01*
X97062742Y-90522500D02*
X97537258Y-90522500D01*
%TO.C,R12*%
X81677500Y-105737258D02*
X81677500Y-105262742D01*
X82722500Y-105737258D02*
X82722500Y-105262742D01*
%TO.C,C7*%
X105656237Y-117232212D02*
X105729007Y-117503792D01*
X104670993Y-117496208D02*
X104743763Y-117767788D01*
%TO.C,R9*%
X108937258Y-109677500D02*
X108462742Y-109677500D01*
X108937258Y-110722500D02*
X108462742Y-110722500D01*
D10*
%TO.C,SW1*%
X83300000Y-100950000D02*
X83300000Y-100800000D01*
X81250000Y-101050000D02*
X81250000Y-100800000D01*
X82350000Y-101900000D02*
X83300000Y-101900000D01*
X82350000Y-98100000D02*
X83300000Y-98100000D01*
X83300000Y-99200000D02*
X83300000Y-99050000D01*
X81250000Y-99200000D02*
X81250000Y-98950000D01*
X81250000Y-100800000D02*
X80950000Y-100800000D01*
X80950000Y-99200000D02*
X81250000Y-99200000D01*
D11*
%TO.C,R8*%
X103312742Y-111072497D02*
X103787258Y-111072497D01*
X103312742Y-110027497D02*
X103787258Y-110027497D01*
%TO.C,R14*%
X87866131Y-100033279D02*
X87628873Y-100444221D01*
X88771127Y-100555779D02*
X88533869Y-100966721D01*
%TO.C,R18*%
X85002248Y-87468995D02*
X84697235Y-87832496D01*
X85802765Y-88140708D02*
X85497752Y-88504209D01*
%TO.C,R10*%
X97262742Y-86377500D02*
X97737258Y-86377500D01*
X97262742Y-87422500D02*
X97737258Y-87422500D01*
%TO.C,J4*%
X85383186Y-97435148D02*
X91763186Y-86384664D01*
X87686814Y-98765148D02*
X94066814Y-87714664D01*
X84083186Y-99686814D02*
X85235000Y-100351814D01*
X85383186Y-97435148D02*
X87686814Y-98765148D01*
X84748186Y-98535000D02*
X84083186Y-99686814D01*
X91763186Y-86384664D02*
X94066814Y-87714664D01*
%TO.C,C11*%
X94892652Y-117220441D02*
X94819882Y-117492021D01*
X95877896Y-117484437D02*
X95805126Y-117756017D01*
%TO.C,C9*%
X93443762Y-116832213D02*
X93370992Y-117103793D01*
X94429006Y-117096209D02*
X94356236Y-117367789D01*
%TO.C,C22*%
X91035000Y-106661252D02*
X91035000Y-106138748D01*
X89565000Y-106661252D02*
X89565000Y-106138748D01*
%TO.C,R5*%
X96437258Y-110322500D02*
X95962742Y-110322500D01*
X96437258Y-109277500D02*
X95962742Y-109277500D01*
%TO.C,R7*%
X103012742Y-112572500D02*
X103487258Y-112572500D01*
X103012742Y-111527500D02*
X103487258Y-111527500D01*
%TO.C,C23*%
X103810000Y-83884420D02*
X103810000Y-84165580D01*
X102790000Y-83884420D02*
X102790000Y-84165580D01*
%TO.C,Q1*%
X86260000Y-105500000D02*
X86260000Y-104850000D01*
X86260000Y-105500000D02*
X86260000Y-106150000D01*
X83140000Y-105500000D02*
X83140000Y-106150000D01*
X83140000Y-105500000D02*
X83140000Y-103825000D01*
%TD*%
%LPC*%
D12*
%TO.C,H2*%
X120000000Y-100000000D03*
%TD*%
%TO.C,H1*%
X93000000Y-81000000D03*
%TD*%
D13*
%TO.C,C5*%
X92151992Y-114248008D03*
X93248008Y-113151992D03*
%TD*%
D14*
%TO.C,U2*%
X97249998Y-115450000D03*
D15*
X96349998Y-115050000D03*
X96349998Y-114550000D03*
X96349998Y-114050000D03*
X96349998Y-113550000D03*
X96349998Y-113050000D03*
X96349998Y-112550000D03*
X96349998Y-112050000D03*
X96349998Y-111550000D03*
D14*
X97249998Y-111150000D03*
X98749998Y-111150000D03*
D15*
X99649998Y-111550000D03*
X99649998Y-112050000D03*
X99649998Y-112550000D03*
X99649998Y-113050000D03*
X99649998Y-113550000D03*
X99649998Y-114050000D03*
X99649998Y-114550000D03*
X99649998Y-115050000D03*
D14*
X98749998Y-115450000D03*
D16*
X97724998Y-111150000D03*
X98274998Y-115450000D03*
X98274998Y-111150000D03*
X97724998Y-115450000D03*
D17*
X97999998Y-113300000D03*
%TD*%
D18*
%TO.C,C2*%
X101900000Y-118875003D03*
X101900000Y-117325003D03*
%TD*%
D19*
%TO.C,R11*%
X101475000Y-89600000D03*
X103125000Y-89600000D03*
%TD*%
D20*
%TO.C,J2*%
X111433882Y-114566116D03*
D21*
X109418765Y-116112370D03*
%TD*%
D18*
%TO.C,C17*%
X101900001Y-115875000D03*
X101900001Y-114325000D03*
%TD*%
D22*
%TO.C,TP1*%
X88716987Y-85163398D03*
D23*
X87744111Y-85979738D03*
%TD*%
D24*
%TO.C,D11*%
X81600001Y-94512498D03*
X81600001Y-96087498D03*
%TD*%
D25*
%TO.C,J1*%
X86600000Y-113200000D03*
D26*
X88615117Y-114746254D03*
X90630235Y-116292508D03*
%TD*%
D27*
%TO.C,R6*%
X108025000Y-112100001D03*
X106375000Y-112100001D03*
%TD*%
D28*
%TO.C,JP11*%
X84225000Y-109862917D03*
D29*
X83575000Y-108737083D03*
%TD*%
D18*
%TO.C,C8*%
X87200000Y-106275000D03*
X87200000Y-104725000D03*
%TD*%
%TO.C,C15*%
X98900000Y-118874999D03*
X98900000Y-117324999D03*
%TD*%
%TO.C,C14*%
X100400002Y-118874999D03*
X100400002Y-117324999D03*
%TD*%
D30*
%TO.C,D12*%
X87956847Y-90156847D03*
X86843153Y-89043153D03*
%TD*%
D31*
%TO.C,C6*%
X103550531Y-117139629D03*
X103951701Y-118636815D03*
%TD*%
D32*
%TO.C,R16*%
X85983363Y-92516637D03*
X84816637Y-93683363D03*
%TD*%
D33*
%TO.C,C4*%
X91014849Y-113971790D03*
X89785151Y-113028210D03*
%TD*%
D34*
%TO.C,R1*%
X101000000Y-110675000D03*
X101000000Y-112325000D03*
%TD*%
D35*
%TO.C,C13*%
X107975000Y-113600000D03*
X106425000Y-113600000D03*
%TD*%
D18*
%TO.C,C12*%
X93100000Y-111375001D03*
X93100000Y-109825001D03*
%TD*%
D36*
%TO.C,C16*%
X88600000Y-110524999D03*
X88600000Y-112074999D03*
%TD*%
D37*
%TO.C,R4*%
X83300002Y-96124999D03*
X83300002Y-94474999D03*
%TD*%
D38*
%TO.C,C10*%
X92651698Y-115963178D03*
X92250528Y-117460364D03*
%TD*%
D39*
%TO.C,U1*%
X89950000Y-111550000D03*
X89950000Y-111050000D03*
X89950000Y-110550000D03*
D40*
X90225000Y-110300000D03*
D39*
X89950000Y-110050000D03*
D40*
X90975000Y-110300000D03*
D39*
X91250000Y-110050000D03*
X91250000Y-110550000D03*
X91250000Y-111050000D03*
X91250000Y-111550000D03*
%TD*%
D41*
%TO.C,R2*%
X89187500Y-102014471D03*
X90012500Y-100585529D03*
%TD*%
D30*
%TO.C,D13*%
X86756847Y-91356848D03*
X85643153Y-90243154D03*
%TD*%
D18*
%TO.C,C34*%
X92100000Y-107375000D03*
X92100000Y-105825000D03*
%TD*%
D31*
%TO.C,C1*%
X106448302Y-116363178D03*
X106849472Y-117860364D03*
%TD*%
D42*
%TO.C,U3*%
X109500000Y-107600000D03*
X107500000Y-107600000D03*
X105500000Y-107600000D03*
X103500000Y-107600000D03*
X101500000Y-107600000D03*
X99500000Y-107600000D03*
X97500000Y-107600000D03*
X95500000Y-107600000D03*
D43*
X94000000Y-105000000D03*
X94000000Y-103000000D03*
X94000000Y-101000000D03*
X94000000Y-99000000D03*
X94000000Y-97000000D03*
X94000000Y-95000000D03*
D42*
X95500000Y-92400000D03*
X97500000Y-92400000D03*
X99500000Y-92400000D03*
X101500000Y-92400000D03*
X103500000Y-92400000D03*
X105500000Y-92400000D03*
X107500000Y-92400000D03*
X109500000Y-92400000D03*
%TD*%
D18*
%TO.C,C18*%
X104900000Y-115074999D03*
X104900000Y-113524999D03*
%TD*%
D19*
%TO.C,R3*%
X109475000Y-112100000D03*
X111125000Y-112100000D03*
%TD*%
D18*
%TO.C,C19*%
X103399998Y-115474999D03*
X103399998Y-113924999D03*
%TD*%
D34*
%TO.C,R17*%
X83300000Y-91475000D03*
X83300000Y-93125000D03*
%TD*%
D44*
%TO.C,J5*%
X110800000Y-85900000D03*
D45*
X108600295Y-84630000D03*
X106400591Y-83360000D03*
%TD*%
D46*
%TO.C,R15*%
X89044023Y-89122703D03*
X87877297Y-87955977D03*
%TD*%
D19*
%TO.C,R13*%
X96475000Y-90000000D03*
X98125000Y-90000000D03*
%TD*%
D37*
%TO.C,R12*%
X82200000Y-106325000D03*
X82200000Y-104675000D03*
%TD*%
D31*
%TO.C,C7*%
X104999415Y-116751407D03*
X105400585Y-118248593D03*
%TD*%
D27*
%TO.C,R9*%
X109525000Y-110200000D03*
X107875000Y-110200000D03*
%TD*%
D47*
%TO.C,SW1*%
X83200000Y-101400000D03*
X83200000Y-98600000D03*
D48*
X83350000Y-100000000D03*
D49*
X81575000Y-97900000D03*
D50*
X81247500Y-98275000D03*
D51*
X81850000Y-98150000D03*
D50*
X81247500Y-101725000D03*
D51*
X81850000Y-101850000D03*
D49*
X81575000Y-102100000D03*
%TD*%
D19*
%TO.C,R8*%
X102725000Y-110549997D03*
X104375000Y-110549997D03*
%TD*%
D52*
%TO.C,R14*%
X88612500Y-99785529D03*
X87787500Y-101214471D03*
%TD*%
D53*
%TO.C,R18*%
X85780300Y-87354615D03*
X84719700Y-88618589D03*
%TD*%
D19*
%TO.C,R10*%
X96675000Y-86900000D03*
X98325000Y-86900000D03*
%TD*%
D54*
%TO.C,J4*%
X85900000Y-99200000D03*
D55*
X87170000Y-97000295D03*
X88440000Y-94800591D03*
X89710000Y-92600886D03*
X90980000Y-90401182D03*
X92250000Y-88201477D03*
%TD*%
D38*
%TO.C,C11*%
X95549474Y-116739636D03*
X95148304Y-118236822D03*
%TD*%
%TO.C,C9*%
X94100584Y-116351408D03*
X93699414Y-117848594D03*
%TD*%
D56*
%TO.C,C22*%
X90300000Y-107350000D03*
X90300000Y-105450000D03*
%TD*%
D27*
%TO.C,R5*%
X97025000Y-109800000D03*
X95375000Y-109800000D03*
%TD*%
D19*
%TO.C,R7*%
X102425000Y-112050000D03*
X104075000Y-112050000D03*
%TD*%
D36*
%TO.C,C23*%
X103300000Y-83250000D03*
X103300000Y-84800000D03*
%TD*%
D57*
%TO.C,Q1*%
X83750000Y-104562500D03*
X85650000Y-104562500D03*
X84700000Y-106437500D03*
%TD*%
M02*
