%TF.GenerationSoftware,KiCad,Pcbnew,(6.0.5)*%
%TF.CreationDate,2022-05-23T16:41:30+02:00*%
%TF.ProjectId,qi-lamp-charger,71692d6c-616d-4702-9d63-686172676572,1.0.0*%
%TF.SameCoordinates,Original*%
%TF.FileFunction,Paste,Top*%
%TF.FilePolarity,Positive*%
%FSLAX46Y46*%
G04 Gerber Fmt 4.6, Leading zero omitted, Abs format (unit mm)*
G04 Created by KiCad (PCBNEW (6.0.5)) date 2022-05-23 16:41:30*
%MOMM*%
%LPD*%
G01*
G04 APERTURE LIST*
G04 Aperture macros list*
%AMRoundRect*
0 Rectangle with rounded corners*
0 $1 Rounding radius*
0 $2 $3 $4 $5 $6 $7 $8 $9 X,Y pos of 4 corners*
0 Add a 4 corners polygon primitive as box body*
4,1,4,$2,$3,$4,$5,$6,$7,$8,$9,$2,$3,0*
0 Add four circle primitives for the rounded corners*
1,1,$1+$1,$2,$3*
1,1,$1+$1,$4,$5*
1,1,$1+$1,$6,$7*
1,1,$1+$1,$8,$9*
0 Add four rect primitives between the rounded corners*
20,1,$1+$1,$2,$3,$4,$5,0*
20,1,$1+$1,$4,$5,$6,$7,0*
20,1,$1+$1,$6,$7,$8,$9,0*
20,1,$1+$1,$8,$9,$2,$3,0*%
%AMRotRect*
0 Rectangle, with rotation*
0 The origin of the aperture is its center*
0 $1 length*
0 $2 width*
0 $3 Rotation angle, in degrees counterclockwise*
0 Add horizontal line*
21,1,$1,$2,0,0,$3*%
G04 Aperture macros list end*
%ADD10RoundRect,0.225000X0.319856X0.104006X-0.069856X0.329006X-0.319856X-0.104006X0.069856X-0.329006X0*%
%ADD11RotRect,1.500000X1.000000X120.000000*%
%ADD12R,1.000000X1.500000*%
%ADD13RotRect,1.500000X1.000000X60.000000*%
%ADD14RoundRect,0.225000X-0.225000X-0.250000X0.225000X-0.250000X0.225000X0.250000X-0.225000X0.250000X0*%
%ADD15RoundRect,0.225000X0.250000X-0.225000X0.250000X0.225000X-0.250000X0.225000X-0.250000X-0.225000X0*%
%ADD16R,1.500000X1.000000*%
%ADD17RoundRect,0.225000X-0.250000X0.225000X-0.250000X-0.225000X0.250000X-0.225000X0.250000X0.225000X0*%
%ADD18RoundRect,0.225000X0.225000X0.250000X-0.225000X0.250000X-0.225000X-0.250000X0.225000X-0.250000X0*%
%ADD19RotRect,1.500000X1.000000X300.000000*%
%ADD20RoundRect,0.250000X0.475000X-0.250000X0.475000X0.250000X-0.475000X0.250000X-0.475000X-0.250000X0*%
%ADD21RotRect,1.500000X1.000000X240.000000*%
%ADD22RoundRect,0.225000X0.069856X0.329006X-0.319856X0.104006X-0.069856X-0.329006X0.319856X-0.104006X0*%
G04 APERTURE END LIST*
D10*
%TO.C,C26*%
X113271170Y-112587500D03*
X111928830Y-111812500D03*
%TD*%
D11*
%TO.C,D2*%
X114883073Y-88578238D03*
X112111791Y-90178238D03*
X114561791Y-94421762D03*
X117333073Y-92821762D03*
%TD*%
D12*
%TO.C,D8*%
X109600000Y-97550001D03*
X106400000Y-97550001D03*
X106400000Y-102450001D03*
X109600000Y-102450001D03*
%TD*%
D13*
%TO.C,D3*%
X117333073Y-107178238D03*
X114561791Y-105578238D03*
X112111791Y-109821762D03*
X114883073Y-111421762D03*
%TD*%
D14*
%TO.C,C25*%
X108325000Y-94300000D03*
X109875000Y-94300000D03*
%TD*%
D10*
%TO.C,C29*%
X88871170Y-88287500D03*
X87528830Y-87512500D03*
%TD*%
D15*
%TO.C,C27*%
X95500000Y-117075000D03*
X95500000Y-115525000D03*
%TD*%
D16*
%TO.C,D7*%
X97550000Y-90400000D03*
X97550000Y-93600000D03*
X102450000Y-93600000D03*
X102450000Y-90400000D03*
%TD*%
%TO.C,D4*%
X102450000Y-118600000D03*
X102450000Y-115400000D03*
X97550000Y-115400000D03*
X97550000Y-118600000D03*
%TD*%
D17*
%TO.C,C30*%
X104400000Y-93625000D03*
X104400000Y-95175000D03*
%TD*%
D18*
%TO.C,C31*%
X107975000Y-104400000D03*
X106425000Y-104400000D03*
%TD*%
D16*
%TO.C,D9*%
X102450000Y-109600000D03*
X102450000Y-106400000D03*
X97550000Y-106400000D03*
X97550000Y-109600000D03*
%TD*%
D19*
%TO.C,D5*%
X85116927Y-111421762D03*
X87888209Y-109821762D03*
X85438209Y-105578238D03*
X82666927Y-107178238D03*
%TD*%
D20*
%TO.C,C21*%
X99950002Y-113449997D03*
X99950002Y-111549997D03*
%TD*%
D16*
%TO.C,D1*%
X97550000Y-81400000D03*
X97550000Y-84600000D03*
X102450000Y-84600000D03*
X102450000Y-81400000D03*
%TD*%
D17*
%TO.C,C24*%
X104400000Y-84625000D03*
X104400000Y-86175000D03*
%TD*%
D21*
%TO.C,D6*%
X82666927Y-92821762D03*
X85438209Y-94421762D03*
X87888209Y-90178238D03*
X85116927Y-88578238D03*
%TD*%
D20*
%TO.C,C20*%
X103450001Y-113449991D03*
X103450001Y-111549991D03*
%TD*%
D14*
%TO.C,C33*%
X92025000Y-95600000D03*
X93575000Y-95600000D03*
%TD*%
D17*
%TO.C,C32*%
X97500000Y-102925000D03*
X97500000Y-104475000D03*
%TD*%
D12*
%TO.C,D10*%
X90400000Y-102450000D03*
X93600000Y-102450000D03*
X93600000Y-97550000D03*
X90400000Y-97550000D03*
%TD*%
D22*
%TO.C,C28*%
X84571170Y-103812500D03*
X83228830Y-104587500D03*
%TD*%
D15*
%TO.C,C3*%
X101700002Y-113274998D03*
X101700002Y-111724998D03*
%TD*%
M02*
