M48
; DRILL file {KiCad (6.0.5)} date Mon May 23 16:40:43 2022
; FORMAT={-:-/ absolute / inch / decimal}
; #@! TF.CreationDate,2022-05-23T16:40:43+02:00
; #@! TF.GenerationSoftware,Kicad,Pcbnew,(6.0.5)
; #@! TF.FileFunction,Plated,1,2,PTH
FMAT,2
INCH
; #@! TA.AperFunction,Plated,PTH,ViaDrill
T1C0.0157
; #@! TA.AperFunction,Plated,PTH,ComponentDrill
T2C0.0217
; #@! TA.AperFunction,Plated,PTH,ComponentDrill
T3C0.0256
; #@! TA.AperFunction,Plated,PTH,ComponentDrill
T4C0.0394
%
G90
G05
T1
X3.1969Y-4.0512
X3.2126Y-3.6299
X3.2205Y-4.374
X3.2244Y-3.8228
X3.2279Y-3.937
X3.2441Y-4.3071
X3.2638Y-4.3858
X3.2874Y-3.8346
X3.2953Y-4.0354
X3.3258Y-3.874
X3.3307Y-3.3937
X3.3622Y-4.0591
X3.3661Y-3.7795
X3.3858Y-4.3465
X3.3898Y-4.2165
X3.4173Y-4.374
X3.4409Y-4.0787
X3.4449Y-4.5669
X3.4528Y-3.6772
X3.4528Y-3.8976
X3.4606Y-4.2559
X3.4724Y-4.2008
X3.5039Y-4.0945
X3.5118Y-4.3071
X3.5394Y-3.752
X3.5522Y-4.2795
X3.5709Y-3.4562
X3.5787Y-3.7402
X3.5787Y-3.7835
X3.5945Y-3.378
X3.5945Y-3.6762
X3.5984Y-4.1417
X3.6024Y-3.8504
X3.6024Y-4.0354
X3.626Y-4.4094
X3.6378Y-3.6693
X3.6457Y-3.3425
X3.6654Y-4.2717
X3.6969Y-4.4291
X3.7008Y-3.2874
X3.7126Y-4.3898
X3.7402Y-4.5039
X3.752Y-4.3937
X3.7559Y-3.5551
X3.7677Y-3.8189
X3.7717Y-3.2047
X3.8031Y-4.1457
X3.8071Y-3.8937
X3.8386Y-3.8031
X3.8425Y-3.9134
X3.8425Y-4.6024
X3.8583Y-4.0118
X3.8583Y-4.4331
X3.8583Y-4.4843
X3.874Y-3.8819
X3.8858Y-3.374
X3.8898Y-3.9803
X3.8937Y-4.0669
X3.9094Y-3.3307
X3.9094Y-3.7756
X3.9173Y-3.5512
X3.9173Y-4.1614
X3.9326Y-3.9375
X3.9567Y-4.1693
X3.9567Y-4.311
X3.9646Y-3.563
X3.9685Y-4.5197
X3.9764Y-3.9409
X3.9798Y-3.9847
X4.0197Y-3.4252
X4.0394Y-3.9606
X4.0669Y-3.3937
X4.094Y-4.0155
X4.1132Y-3.8189
X4.1142Y-3.5197
X4.1299Y-4.0315
X4.1339Y-3.9331
X4.1378Y-4.4173
X4.1459Y-4.0675
X4.1575Y-4.3701
X4.1811Y-3.937
X4.2244Y-3.7126
X4.252Y-3.5079
X4.252Y-4.0512
X4.2598Y-4.622
X4.2992Y-4.1102
X4.3031Y-4.4764
X4.311Y-3.7638
X4.315Y-3.8976
X4.3701Y-4.2953
X4.374Y-4.3661
X4.4291Y-4.374
X4.4685Y-4.3858
X4.4882Y-3.4252
X4.5274Y-3.4284
X4.5472Y-4.4606
T2
X3.2224Y-3.8642
X3.2224Y-4.0098
T3
X3.4545Y-3.385
X3.4928Y-3.3529
T4
X3.3819Y-3.9055
X3.4094Y-4.4567
X3.4319Y-3.8189
X3.4819Y-3.7323
X3.4888Y-4.5176
X3.5319Y-3.6457
X3.5681Y-4.5784
X3.5819Y-3.5591
X3.6319Y-3.4725
X4.189Y-3.2819
X4.2756Y-3.3319
X4.3078Y-4.5714
X4.3622Y-3.3819
X4.3872Y-4.5105
T0
M30
